<?xml version="1.0" encoding="utf-8"?>
<!-- Generator: Adobe Illustrator 26.0.1, SVG Export Plug-In . SVG Version: 6.00 Build 0)  -->
<svg version="1.1" id="Layer_1" xmlns="http://www.w3.org/2000/svg" xmlns:xlink="http://www.w3.org/1999/xlink" x="0px" y="0px"
	 viewBox="0 0 70 70" style="enable-background:new 0 0 70 70;" xml:space="preserve">
<style type="text/css">
	.st0{fill:#2485B1;}
</style>
<g>
	<g>
		<path class="st0" d="M54.1,34.9c2.9,0.7,4.9,2.3,5.8,5.1c0.7,2.3,0.3,4.4-1,6.4c-0.2,0.3-0.3,0.6-0.3,0.9c0.4,2.8,0.8,5.6,1.2,8.4
			c1.1,0,2.1,0,3.2,0c0.8,0,1.7,0,2.5,0.1c2,0.3,3.4,2,3.4,3.9c0,2.8,0,5.6,0,8.5c0,1-0.5,1.3-1.5,1.3c-7.5,0-15,0-22.5,0
			c-2.1,0-4.3,0-6.4,0c-1.2,0-1.5-0.4-1.5-1.5c0-0.7,0-1.5,0-2.2c0,0,0-0.1-0.1-0.2c-0.3,0-0.6,0-0.9,0c-11,0-22,0-33,0
			c-1.5,0-1.8-0.3-1.8-1.8c0-16.9,0-33.8,0-50.7c0-0.8,0.2-1.3,0.8-1.9c3.3-3.3,6.6-6.6,9.9-9.9c0.5-0.5,1-0.7,1.7-0.7
			c13,0,25.9,0,38.9,0c1.4,0,1.7,0.3,1.7,1.7c0,10.6,0,21.2,0,31.8C54.1,34.2,54.1,34.5,54.1,34.9z M3.5,13.6c0,16.6,0,33.1,0,49.5
			c11.2,0,22.3,0,33.4,0c0-1,0.1-1.9,0-2.8c-0.2-3,2-4.8,4.7-4.7c1.4,0.1,2.9,0,4.3,0c0.1-0.2,0.1-0.3,0.1-0.5
			c0.4-2.5,0.7-5,1.1-7.5c0.1-0.6,0-1.1-0.4-1.6c-1.8-2.7-1.6-6.1,0.5-8.6c1.1-1.4,2.6-2.2,4.4-2.6c0-10.7,0-21.3,0-32
			c-12.5,0-25,0-37.5,0c0,0.3,0,0.6,0,0.8c0,2.8,0,5.6,0,8.4c0,1-0.4,1.4-1.4,1.5c-1.5,0-2.9,0-4.4,0C6.8,13.6,5.2,13.6,3.5,13.6z
			 M39.3,67.1c9.1,0,18.1,0,27.2,0c0-2.3,0-4.5,0-6.7c0-1.7-0.6-2.3-2.3-2.3c-7.5,0-15,0-22.6,0c-0.2,0-0.5,0-0.7,0
			c-0.9,0.1-1.6,0.7-1.6,1.6C39.3,62.1,39.3,64.6,39.3,67.1z M57.4,55.6c0-0.2,0-0.3,0-0.4c-0.4-2.7-0.8-5.5-1.2-8.2
			c-0.1-0.7,0.1-1.2,0.5-1.7c1.7-2.1,1.6-5-0.4-6.8c-1.9-1.8-4.9-1.8-6.8,0c-1.9,1.8-2.1,4.8-0.4,6.8c0.4,0.5,0.6,1,0.5,1.7
			c-0.2,1.5-0.4,3-0.7,4.5c-0.2,1.4-0.4,2.7-0.6,4.1C51.4,55.6,54.4,55.6,57.4,55.6z M11.8,4.9C9.7,7,7.6,9.1,5.6,11.2
			c1.9,0,4.1,0,6.2,0C11.8,9,11.8,6.9,11.8,4.9z"/>
		<path class="st0" d="M28.2,51.3c0.2-0.9,0.3-1.8,0.6-2.6c0.2-0.9,0.5-1.8,0.9-2.6c0.3-0.7,0.9-1.1,1.7-1c0.4,0.1,0.9,0.4,1,0.8
			c0.1,0.3-0.1,0.9-0.3,1.2c-0.2,0.4-0.6,0.8-0.8,1.3c-0.4,1.5-0.7,3-1.1,4.4c-0.1,0.5-0.3,1-0.6,1.5c-0.7,1.1-2.1,1.2-2.9,0
			c-0.4-0.7-0.7-1.5-0.9-2.2c-0.3-1.1-0.6-2.2-0.9-3.3c0-0.1-0.1-0.1-0.2-0.4c0,0.5-0.1,0.7-0.1,1c-0.1,2.2-0.2,4.4-0.3,6.5
			c0,0.4-0.2,0.8-0.3,1.2c-0.3,1-0.9,1.8-2,1.9c-1.1,0.2-2.2-0.2-2.7-1.2C18.7,57,18.3,56,18,54.9c-0.4-1.3-0.6-2.7-0.9-4
			c-0.2-0.6-0.4-1.2-0.7-1.8c-0.8-1.5-2.5-2.1-4.1-1.5c-0.8,0.3-1.3,0.9-1.4,1.8c-0.3,1.7,0.2,3.3,0.7,4.8c0.1,0.2,0.2,0.5,0.2,0.7
			c0.1,0.6-0.2,1.1-0.8,1.3c-0.6,0.2-1.1,0-1.4-0.6c-0.9-2.2-1.6-4.5-1-6.9c0.6-2.5,2.8-4,5.6-3.7c1.9,0.2,3.3,1.1,4.2,2.8
			c0.9,1.7,1.2,3.6,1.6,5.4c0.2,0.9,0.5,1.8,0.8,2.7c0.1,0.3,0.5,0.4,0.7,0.7c0.1-0.3,0.4-0.5,0.4-0.8c0.1-1.7,0.2-3.4,0.3-5.1
			c0.1-1.2,0.1-2.5,0.3-3.7c0.1-0.5,0.4-1,0.8-1.4c0.8-0.8,2.2-0.7,2.9,0.3c0.5,0.8,0.8,1.8,1.2,2.7c0.3,0.8,0.4,1.6,0.7,2.5
			C28.1,51.3,28.1,51.3,28.2,51.3z"/>
		<path class="st0" d="M27.5,21.5c-5.5,0-11,0-16.5,0c-0.2,0-0.5,0-0.7,0c-0.6-0.2-1-0.6-0.9-1.2c0-0.6,0.4-1,1-1.1
			c0.2,0,0.4,0,0.7,0c11.1,0,22.2,0,33.3,0c0.2,0,0.4,0,0.7,0c0.6,0.1,1,0.5,1,1.2c0,0.6-0.4,1-0.9,1.1c-0.2,0.1-0.5,0-0.7,0
			C38.7,21.5,33.1,21.5,27.5,21.5z"/>
		<path class="st0" d="M27.6,28.6c5.6,0,11.1,0,16.7,0c0.3,0,0.8,0,1,0.2c0.3,0.3,0.6,0.8,0.6,1.1c-0.1,0.4-0.5,0.7-0.9,1
			c-0.2,0.1-0.5,0-0.8,0c-11,0-22.1,0-33.1,0c-0.1,0-0.2,0-0.4,0c-0.9,0-1.4-0.5-1.4-1.2c0-0.7,0.5-1.2,1.4-1.2
			C16.3,28.6,22,28.6,27.6,28.6z"/>
		<path class="st0" d="M24,38c4.3,0,8.7,0,13,0c0.2,0,0.5,0,0.7,0c0.6,0.1,0.9,0.5,1,1c0.1,0.5-0.2,1-0.7,1.2
			c-0.2,0.1-0.5,0.1-0.8,0.1c-8.8,0-17.6,0-26.4,0c-0.2,0-0.5,0-0.7-0.1c-0.6-0.2-0.9-0.6-0.8-1.2c0.1-0.6,0.4-0.9,1-1
			c0.2,0,0.5,0,0.7,0C15.4,38,19.7,38,24,38z"/>
		<path class="st0" d="M34.3,9.8c3.1,0,6.2,0,9.3,0c0.2,0,0.4,0,0.6,0c0.7,0.1,1.1,0.5,1.1,1.2c0,0.6-0.4,1.1-1.1,1.2
			c-0.6,0-1.2,0-1.8,0c-5.9,0-11.7,0-17.6,0c-0.2,0-0.5,0-0.7,0c-0.6-0.1-1-0.5-1-1.2c0-0.7,0.4-1,1-1.2c0.2,0,0.4,0,0.7,0
			C27.9,9.8,31.1,9.8,34.3,9.8z"/>
		<path class="st0" d="M52.9,65.1c-2,0-3.9,0-5.9,0c-0.9,0-1.4-0.5-1.4-1.2c0-0.7,0.5-1.2,1.4-1.2c3.9,0,7.9,0,11.8,0
			c0.9,0,1.4,0.4,1.4,1.2c0,0.7-0.5,1.2-1.4,1.2C56.8,65.1,54.9,65.1,52.9,65.1z"/>
	</g>
</g>
</svg>
