<?xml version="1.0" encoding="utf-8"?>
<!-- Generator: Adobe Illustrator 26.0.1, SVG Export Plug-In . SVG Version: 6.00 Build 0)  -->
<svg version="1.1" id="Layer_1" xmlns="http://www.w3.org/2000/svg" xmlns:xlink="http://www.w3.org/1999/xlink" x="0px" y="0px"
	 viewBox="0 0 70 70" style="enable-background:new 0 0 70 70;" xml:space="preserve">
<style type="text/css">
	.st0{fill:#2485B1;}
</style>
<g>
	<g>
		<path class="st0" d="M42.4,1.3C28.2-1.5,16.4,2.9,7.4,14.3c-4.1,5.2-6.3,11.3-6.8,17.9c0,0.2-0.1,0.4-0.1,0.6v4.3
			C0.7,38.4,0.8,39.7,1,41c2.2,13.5,13.2,24.9,26.5,27.7c1.6,0.3,3.2,0.5,4.8,0.7c0.2,0,0.3,0.1,0.5,0.1h4.3
			c1.3-0.2,2.5-0.3,3.8-0.5c10.4-2,18.4-7.5,23.9-16.6c3.4-5.6,4.8-11.7,4.7-18.3C69.2,18.4,57.8,4.4,42.4,1.3z M31,67.2
			c-0.7-0.1-1.4-0.2-2.1-0.3c-6.5-1.3-12.2-4.3-16.9-9c-0.1-0.1-0.3-0.3-0.3-0.5c0-1.6-0.1-3.1,0.6-4.6c0.7-1.4,1.7-2.5,3.1-3.1
			c2-0.8,4.1-1.4,6.1-2.1c0.5,0.9,0.9,1.7,1.3,2.6c0.1,0.2,0,0.6-0.1,0.8c-0.2,0.3-0.5,0.5-0.7,0.7c-0.8,0.9-1,1.8-0.6,2.9
			c0.8,2.1,2.1,4,3.5,5.8c1.7,2.1,3.6,4,5.4,6c0.2,0.2,0.5,0.4,0.7,0.6C31,67.1,31,67.1,31,67.2z M24,55.4c-0.1-0.3-0.3-0.5-0.4-0.8
			c-0.5-1.1-0.5-1.1,0.4-2c1.2-1.2,1.3-2.2,0.6-3.7c-0.3-0.7-0.7-1.3-1-2.1c1.3-0.7,2.6-1.3,4-2c-0.1,0.4-0.1,0.7-0.1,1
			c-0.5,3.5,0.1,6.9,1.2,10.3c0.8,2.6,1.8,5.2,2.8,7.7c0.1,0.2,0.1,0.4,0.2,0.6C28.7,61.8,25.9,58.9,24,55.4z M36.6,39.4
			c-5.1,1-10.2-2.8-10.9-7.9c0-0.4-0.1-0.9-0.2-1.2c-0.2-0.6-0.7-0.9-1.3-1c-0.5,0-0.7-0.3-0.7-0.8v-2.3c0.5,0,0.9,0,1.3,0
			c1.6-0.1,3-1.4,3-3c0-0.3,0-0.7,0-1c0-1.2,0.7-1.8,1.9-1.4c2.2,0.7,4.5,1,6.8,0.7c1.3-0.1,2.6-0.4,3.9-0.7c1.3-0.3,2,0.1,2,1.5
			c0,0.5,0,0.9,0.1,1.4c0.3,1.5,1.5,2.5,3,2.5c0.4,0,0.8,0,1.2,0c0,0.9,0,1.7,0,2.6c0,0.2-0.3,0.5-0.6,0.5c-1.2,0.3-1.4,0.6-1.6,1.8
			C43.8,35.4,40.9,38.6,36.6,39.4z M38.7,43.6c-1.2,1.3-2.3,2.7-3.6,4.1c-0.5-0.5-0.9-1-1.4-1.5c-0.8-0.9-1.6-1.9-2.5-2.7
			c-0.9-0.8-1-1.7-0.8-2.9c3,1.2,6,1.2,9,0C39.8,41.8,39.5,42.7,38.7,43.6z M36.5,64.1c-0.5,1-0.9,2-1.4,3h-0.2
			c-0.7-1.6-1.5-3.3-2.2-5c-0.1-0.1-0.1-0.4,0-0.5c0.5-2.1,1-4.1,1.6-6.2h1.6c0.4,1.4,0.6,2.9,1.1,4.3
			C37.5,61.2,37.3,62.7,36.5,64.1z M37.7,54.6c-0.3-0.8-1.2-1.3-1.7-1.5c-0.3,0-0.5,0-0.7,0c-0.1,0-1,0-1.3,0
			c-0.8,0.1-1.2,0.4-1.2,0.4c-0.2,0.2-0.3,0.3-0.6,1.2c-0.2,0.8-0.3,1.3-0.5,1.8c-0.2,0.6-0.4,1.2-0.6,1.8c-0.4-1.3-0.8-2.7-1.2-4
			c0,0,0,0,0,0c-0.1-0.2-0.1-0.4-0.2-0.7c0,0,0-0.1,0-0.1c-0.3-1.3-0.5-3-0.6-3.7c0-0.2,0-0.3,0-0.3c0-1.6-0.1-3.1,0.5-4.8
			c1.2,1.3,2.3,2.6,3.4,3.9c0.1,0.1,0.1,0.2,0.2,0.2c0.6,0.7,1.3,1.3,1.9,1.9l1.3-1.6l0.9-1c1-1.1,1.9-2.2,3-3.5
			c0.1,1,0.3,1.7,0.4,2.5c0,0.1,0,0.5,0,1c0,0.2,0,0.4,0,0.5c0,0.2,0,0.3,0,0.4c0,0,0,0.2,0,0.3c-0.1,1.4-0.5,3.2-0.6,4c0,0,0,0,0,0
			c0,0.1,0,0.2-0.1,0.3c0,0.1,0,0.1,0,0.1c-0.4,1.5-0.9,3-1.3,4.5c0,0-0.1,0-0.1,0C38.3,57.2,38,56,37.7,54.6
			C37.7,54.7,37.7,54.7,37.7,54.6z M56.7,59.2c-4.9,4.4-10.7,7.1-17.3,8c-0.1,0-0.3,0-0.5,0c1.3-1.3,2.5-2.6,3.6-3.8
			c0.7-0.8,1.4-1.6,2.1-2.4c0.7-0.9,0.8-1.4,0.2-1.9c-0.6-0.5-1.1-0.3-1.8,0.6c-1.5,1.7-2.9,3.3-4.5,4.9c2.4-6.3,5-12.6,4-19.7
			c1.3,0.7,2.6,1.3,4,1.9c-0.4,0.8-0.7,1.5-1.1,2.2c-0.7,1.4-0.5,2.4,0.6,3.5c0.9,0.9,0.9,1,0.4,2.1c-0.1,0.3-0.3,0.6-0.4,0.9
			c-0.2,0.5,0,0.9,0.5,1.2c0.5,0.3,0.9,0.2,1.2-0.2c0.6-0.9,1.1-1.9,1.1-3c0-0.9-0.4-1.5-1-2c-0.8-0.8-0.8-0.8-0.3-1.9
			c0.3-0.6,0.6-1.2,0.9-1.7c0,0,0-0.1,0.1-0.2c1.2,0.4,2.4,0.8,3.7,1.2c0.7,0.2,1.4,0.4,2,0.7c2.5,0.9,4.1,3.2,4.1,5.9
			C58.4,57.7,58.4,57.7,56.7,59.2z M60.4,55.1c-0.2-0.8-0.3-1.7-0.6-2.5c-0.9-2.5-2.7-4.1-5.1-5c-1.9-0.6-3.8-1.1-5.6-1.8
			c-1.9-0.7-3.7-1.7-5.5-2.6c-0.6-0.3-1.5-0.5-1.8-1c-0.3-0.5-0.1-1.3-0.1-2c0-0.5,0.2-0.8,0.6-1.1c2.3-1.9,3.7-4.3,4.2-7.3
			c0-0.2,0.3-0.5,0.5-0.6c1.2-0.5,1.8-1.4,1.8-2.6c0-3.4,0-6.7,0-10.1c0-2.3-1.6-3.9-3.9-4.1c-0.1,0-0.2,0-0.2,0
			c-0.1-0.5-0.2-0.9-0.3-1.4c-0.6-1.6-2-2.7-3.7-2.7c-3.7,0-7.4-0.1-11.1,0c-4.2,0.1-7.7,3.6-7.8,7.8c0,0.8,0.3,1.3,1,1.3
			c0.6,0,1-0.4,1-1.2c0.2-3.5,2.8-5.9,6.3-5.9c3.4,0,6.8,0,10.2,0c1.4,0,2.2,0.7,2.3,2.1c0.1,1.2,0.9,1.9,2.2,2c1.2,0.1,2,0.9,2.1,2
			c0,1.9,0,3.8,0,5.8c-0.5,0-1,0.1-1.4,0c-0.6-0.1-0.9-0.5-0.9-1.1c0-0.5,0-1.1-0.1-1.6c-0.3-2-2.2-3.3-4.1-2.7c-3.4,1-6.8,1-10.2,0
			c-2.1-0.7-4.1,0.9-4.2,3.1v0.9c0,1-0.4,1.4-1.4,1.4h-0.9c0-0.4,0-0.8,0-1.2c0-0.6-0.4-1-0.9-1c-0.6,0-1.1,0.3-1.1,1c0,2,0,4,0,6
			c0,1,0.7,1.8,1.6,2.2c0.4,0.2,0.5,0.4,0.6,0.8c0.5,2.9,1.8,5.3,4.1,7.1c0.4,0.3,0.5,0.7,0.6,1.2c0.3,1.6-0.4,2.3-1.9,3
			c-3.3,1.6-6.6,3-10.1,4c-4.1,1.1-6.4,3.7-6.8,7.9c-8.3-9.6-11-28.1,1.2-41.8C23.1-0.5,44.6-1.2,57.9,11.9
			C70.9,24.8,69.7,44.2,60.4,55.1z"/>
	</g>
</g>
</svg>
