<?xml version="1.0" encoding="utf-8"?>
<!-- Generator: Adobe Illustrator 26.0.1, SVG Export Plug-In . SVG Version: 6.00 Build 0)  -->
<svg version="1.1" id="Layer_1" xmlns="http://www.w3.org/2000/svg" xmlns:xlink="http://www.w3.org/1999/xlink" x="0px" y="0px"
	 viewBox="0 0 70 70" style="enable-background:new 0 0 70 70;" xml:space="preserve">
<style type="text/css">
	.st0{fill:#2485B1;}
</style>
<g>
	<g>
		<path class="st0" d="M19.9,69.5c-1.8-0.6-2.5-2-2.4-3.9c0.1-2.2,0-4.4,0-6.7c-0.7,0-1.5,0-2.2,0c-2.6,0-3.7-1.1-3.7-3.7
			c0-17,0-33.9,0-50.9c0-1.9,0.6-3.2,2.4-3.9c2.3,0,4.6,0,6.9,0c0.4,0.4,0.8,0.7,0.6,1.4c-0.2,0.6-0.8,0.7-1.3,0.7
			c-1.6,0-3.2,0-4.8,0c-1.5,0-1.7,0.2-1.7,1.7c0,17,0,34.1,0,51.1c0,0.2-0.1,0.6,0,0.7c0.2,0.3,0.5,0.8,0.8,0.8c1,0.1,2,0,3,0
			c0-0.3,0-0.6,0-0.9c0-13.9,0-27.7,0-41.6c0-1.7,0.8-2.8,2.3-3.3C28.5,8.4,37.2,5.6,46,2.8c0.2,0,0.3-0.1,0.6-0.3
			c-0.5,0-0.7,0-0.9,0c-6.7,0-13.4,0-20.1,0c-0.6,0-1.1-0.1-1.3-0.7c-0.2-0.6,0.1-1,0.6-1.3c8.4,0,16.8,0,25.2,0
			c1.8,0.6,2.5,1.9,2.4,3.8c-0.1,2.2,0,4.4,0,6.8c0.8,0,1.6,0,2.4,0c2.3,0,3.5,1.2,3.5,3.5c0,14.3,0,28.7,0,43c0,0.2,0,0.5,0,0.7
			c-0.1,0.6-0.5,0.9-1.1,0.8c-0.5,0-0.9-0.4-0.9-0.9c0-0.3,0-0.5,0-0.8c0-14.2,0-28.4,0-42.6c0-0.2,0-0.5,0-0.7
			c-0.1-0.6-0.4-0.9-1-1c-0.2,0-0.4,0-0.6,0c-11.2,0-22.4,0-33.6,0c-1.4,0-1.6,0.2-1.6,1.7c0,17,0,34,0,51.1c0,1.4,0.2,1.7,1.7,1.7
			c11.2,0,22.4,0,33.6,0c1.4,0,1.6-0.2,1.6-1.7c0-0.9,0-1.9,0-2.8c0-0.7,0.4-1.1,1-1.2c0.6,0,1,0.4,1,1.2c0,1.2,0,2.3,0,3.5
			c0,1.6-1,2.5-2.4,3C44,69.5,32,69.5,19.9,69.5z M27.3,10.9c0,0,0,0.1,0,0.1c7.7,0,15.4,0,23.1,0c0-2.5,0-5,0-7.5
			C42.7,6,35,8.4,27.3,10.9z"/>
		<path class="st0" d="M29.5,29.6c-1.6,0-3.3,0-4.9,0c-1.5,0-2.3-0.8-2.3-2.3c0-3,0-6.1,0-9.1c0-1.6,0.8-2.3,2.3-2.3
			c3.3,0,6.6,0,9.8,0c1.5,0,2.3,0.7,2.3,2.3c0,3.1,0,6.1,0,9.2c0,1.5-0.8,2.3-2.3,2.3C32.9,29.6,31.2,29.6,29.5,29.6z M24.4,18
			c0,3.2,0,6.4,0,9.6c3.5,0,6.9,0,10.3,0c0-3.2,0-6.4,0-9.6C31.3,18,27.9,18,24.4,18z"/>
		<path class="st0" d="M29.6,34c1.6,0,3.3,0,4.9,0c1.6,0,2.3,0.7,2.3,2.3c0,3.1,0,6.1,0,9.2c0,1.5-0.8,2.3-2.3,2.3
			c-3.3,0-6.6,0-9.9,0c-1.5,0-2.3-0.8-2.3-2.2c0-3.1,0-6.1,0-9.2c0-1.4,0.8-2.2,2.2-2.2C26.2,34,27.9,34,29.6,34z M24.4,45.6
			c3.5,0,6.9,0,10.3,0c0-3.2,0-6.3,0-9.5c-3.5,0-6.9,0-10.3,0C24.4,39.3,24.4,42.4,24.4,45.6z"/>
		<path class="st0" d="M29.6,64.6c-1.7,0-3.4,0-5,0c-1.4,0-2.2-0.8-2.2-2.2c0-3.1,0-6.2,0-9.4c0-1.3,0.8-2.1,2.1-2.1
			c3.4,0,6.9,0,10.3,0c1.3,0,2.1,0.8,2.1,2.1c0,3.1,0,6.2,0,9.4c0,1.4-0.8,2.2-2.2,2.2C32.9,64.7,31.3,64.6,29.6,64.6z M24.4,53
			c0,3.2,0,6.4,0,9.6c3.5,0,6.9,0,10.3,0c0-3.2,0-6.4,0-9.6C31.3,53,27.9,53,24.4,53z"/>
		<path class="st0" d="M46.3,54.9c2,0,3.9,0,5.9,0c0.9,0,1.4,0.4,1.4,1c0,0.6-0.5,1-1.3,1c-3.9,0-7.9,0-11.8,0
			c-0.8,0-1.3-0.3-1.3-0.9c-0.1-0.6,0.4-1.1,1.2-1.1C42.2,54.9,44.3,54.9,46.3,54.9z"/>
		<path class="st0" d="M46.3,21.8c-2,0-3.9,0-5.9,0c-0.8,0-1.3-0.3-1.3-1c0-0.7,0.4-1.1,1.3-1.1c4,0,8,0,12,0c0.8,0,1.2,0.4,1.3,1
			c0,0.6-0.5,1-1.3,1C50.2,21.8,48.2,21.8,46.3,21.8z"/>
		<path class="st0" d="M46.3,39.9c-1.9,0-3.9,0-5.8,0c-0.2,0-0.6,0-0.7-0.1c-0.3-0.3-0.7-0.6-0.7-0.9c0-0.3,0.4-0.7,0.7-0.9
			c0.2-0.1,0.5-0.1,0.8-0.1c3.8,0,7.6,0,11.4,0c1,0,1.5,0.3,1.5,1c0,0.7-0.5,1-1.5,1C50.1,39.9,48.2,39.9,46.3,39.9z"/>
		<path class="st0" d="M42.4,23.7c0.8,0,1.5,0,2.3,0c0.6,0,1,0.4,1.1,1c0,0.6-0.4,1-1,1c-1.5,0-3.1,0-4.6,0c-0.6,0-1-0.5-1-1
			c0-0.6,0.4-1,1.1-1C40.9,23.7,41.6,23.7,42.4,23.7z"/>
		<path class="st0" d="M42.4,58.7c0.7,0,1.5,0,2.2,0c0.6,0,1.1,0.4,1.1,1c0,0.6-0.4,1-1.1,1c-1.5,0-3,0-4.5,0c-0.7,0-1.1-0.4-1.1-1
			c0-0.6,0.4-1,1.1-1C40.9,58.7,41.7,58.7,42.4,58.7z"/>
		<path class="st0" d="M42.4,41.7c0.7,0,1.5,0,2.2,0c0.7,0,1.1,0.4,1.1,1c0,0.6-0.4,1-1.1,1c-1.5,0-3,0-4.5,0c-0.7,0-1.1-0.4-1.1-1
			c0-0.6,0.4-1,1.1-1C40.9,41.7,41.7,41.7,42.4,41.7z"/>
	</g>
</g>
</svg>
