<?xml version="1.0" encoding="utf-8"?>
<!-- Generator: Adobe Illustrator 25.4.1, SVG Export Plug-In . SVG Version: 6.00 Build 0)  -->
<svg version="1.1" id="Layer_1" xmlns="http://www.w3.org/2000/svg" xmlns:xlink="http://www.w3.org/1999/xlink" x="0px" y="0px"
	 viewBox="0 0 440 440" style="enable-background:new 0 0 440 440;" xml:space="preserve">
<style type="text/css">
	.st0{display:none;}
	.st1{display:inline;fill:#FFFFFF;}
	.st2{display:inline;fill:#FEFEFE;}
	.st3{fill:#FFFFFF;}
</style>
<g class="st0">
	<path class="st1" d="M248.1,170.6c-10.5,0-21-0.1-31.4,0c-2.1,0-3.2-0.4-4.2-2.5c-3.4-7.9-9.1-13.6-17-17c-2-0.8-2.4-1.9-2.4-3.9
		c0.1-6.6,0-13.2,0-19.8c0-6.1,0-12.2,0-18.3c0-8.2-4.4-13.4-11.3-13.3c-6.9,0.1-11.1,5.2-11.1,13.5c0,12.5-0.1,25,0.1,37.4
		c0,2.4-0.6,3.5-2.9,4.7c-11.7,5.6-18.4,15.1-19.5,28c-1.3,16.3,9.5,31,25.4,35.1c15.6,4,31.9-3.8,38.7-18.7c1-2.2,2.1-2.8,4.4-2.8
		c10.5,0.1,20.9,0.1,31.4,0c7.2,0,12.3-4.7,12.2-11.3C260.4,175.2,255.3,170.6,248.1,170.6z M181.7,193.1c-6-0.1-11.1-5.2-11.1-11.3
		c0-6.1,5.1-11.1,11.2-11.2c6,0,11.2,5,11.3,11.1C193.2,187.9,187.9,193.1,181.7,193.1z"/>
	<path class="st1" d="M303.3,344.2c-6.1-0.1-11.2,4.9-11.4,11c-0.1,6,4.8,11.3,10.9,11.5c6.2,0.2,11.5-5,11.6-11.1
		C314.4,349.4,309.3,344.3,303.3,344.2z M314.3,281.1c0-6.8-4.9-11.8-11.3-11.8c-6.2,0.1-11,5-11.1,11.6c-0.1,4.9,0,9.7,0,14.6
		c0,4.7,0,9.5,0,14.2c0.1,6.9,4.8,11.9,11.2,12c6.4,0,11.2-5,11.3-11.9C314.4,300.3,314.4,290.7,314.3,281.1z M291.9,309.8
		c0.1,6.9,4.8,11.9,11.2,12c6.4,0,11.2-5,11.3-11.9c0.1-9.6,0.1-19.2,0-28.8c0-6.8-4.9-11.8-11.3-11.8c-6.2,0.1-11,5-11.1,11.6
		c-0.1,4.9,0,9.7,0,14.6C291.9,300.3,291.8,305.1,291.9,309.8z M303.3,344.2c-6.1-0.1-11.2,4.9-11.4,11c-0.1,6,4.8,11.3,10.9,11.5
		c6.2,0.2,11.5-5,11.6-11.1C314.4,349.4,309.3,344.3,303.3,344.2z M406.8,358.9c-19.4-35.5-38.9-70.9-58.4-106.2
		c-5.3-9.6-10-19.5-16.2-28.5c-1.4-2-2-3.6-1.4-6c5.9-23.4,6.6-47,0.5-70.3c-16.5-63-56.8-102-120.4-116.5
		c-5.9-1.3-11.9-1.9-17.8-2.9h-23.9c-6.9,0.9-13.8,1-20.6,2.6c-29.7,6.9-55.2,21-76.6,42.7c-19.5,19.8-32.6,43.2-39.7,70
		c-2.1,8.1-2.9,16.3-3.8,24.6v26.2c0.9,0.4,0.6,1.2,0.7,1.9c0.8,8.2,2.1,16.3,4.3,24.2c13.4,47.8,42.8,81.9,88.1,102.1
		c22.9,10.2,47.1,14,72.2,12c6.6-0.5,13.2-1.8,20.3-2.7c-5.1,9.3-10.1,18.1-14.8,26.9c-13.2,24.5,3.4,52.5,31.3,52.5
		c48.4,0.1,96.8,0,145.2,0c3.4,0,6.7-0.4,10-1.3C408.1,403.9,418.2,379.6,406.8,358.9z M196.2,312c-2.3,0.3-3.4-0.1-3.1-2.8
		c0.2-2.6,0.1-5.2,0-7.9c-0.2-6.3-5.2-11.1-11.3-11.1c-6.1,0.1-10.9,4.9-11.1,11.3c-0.1,2.5-0.2,5,0,7.5c0.3,2.8-0.8,3.2-3.3,3
		c-12-1.1-29.1-5.9-40.9-11.7c1.7-2.9,3.4-5.8,5-8.7c3.3-6,1.6-12.8-4-15.9c-5.5-3-11.9-1.1-15.4,4.6c-0.7,1.2-1.4,2.4-2.1,3.6
		c-3.1,5.3-3.1,5.3-7.9,1.7c-9.9-7.7-18.6-16.6-26-26.7c-1.3-1.8-1.2-2.6,0.7-3.5c2.4-1.2,4.8-2.6,7.1-4.1c5.4-3.5,7-10.1,3.9-15.3
		c-3.1-5.3-9.6-7-15.3-3.9c-2.5,1.3-5,2.8-7.4,4.3c-1.4,0.9-2,0.6-2.7-0.9c-5.6-12.7-9.2-26-10.8-39.8c-0.2-2.2,0.5-2.8,2.6-2.6
		c2.7,0.2,5.5,0.1,8.2,0c6.2-0.2,11.1-5.3,11-11.4c-0.1-6-4.9-10.7-11-11c-2.1-0.1-4.2,0-6.4,0c-4.7,0-4.7,0-4.1-4.5
		c1.7-12.8,5-25.1,10.1-36.9c1.1-2.6,2.1-2.7,4.1-1.2c2,1.4,4.2,2.6,6.5,3.8c5.7,3,12.2,1.3,15.3-4c3.1-5.3,1.4-11.9-4-15.3
		c-2.3-1.5-4.7-2.8-7.1-4.1c-1.6-0.8-2.2-1.4-0.8-3.2c8.2-11.1,17.9-20.8,29-29c1.9-1.4,2.6-0.8,3.5,0.9c1.2,2.3,2.5,4.6,3.9,6.8
		c3.4,5.5,9.9,7.2,15.2,4.2c5.4-3,7.2-9.5,4.3-15.2c-0.8-1.6-1.7-3-2.6-4.6c-2.9-4.9-2.9-5,2.2-7.1c11.6-4.8,23.6-7.8,36-9.4
		c2.6-0.3,3.5,0.4,3.2,3c-0.2,2.5-0.1,5,0,7.5c0.2,6.3,5.1,11.2,11.2,11.2c6.1,0,11-4.9,11.2-11.2c0.1-2.7,0.1-5.5,0-8.2
		c-0.1-1.9,0.4-2.6,2.5-2.3c14,1.5,27.3,5.1,40.2,10.8c1.4,0.6,1.6,1.2,0.8,2.5c-1.6,2.5-3.1,5.1-4.5,7.8c-3,5.7-1.2,12.2,4.2,15.2
		c5.3,3,11.8,1.3,15.3-4.2c1.5-2.4,3-4.9,4.3-7.4c0.8-1.5,1.4-1.6,2.8-0.6c11.3,8.3,21.2,18.2,29.5,29.5c1,1.3,0.9,2-0.6,2.8
		c-2.5,1.3-5,2.8-7.4,4.3c-5.4,3.4-7.2,9.9-4.1,15.3c3,5.2,9.3,7.1,14.9,4.3c2.7-1.3,5.2-2.9,7.8-4.4c1.1-0.7,1.9-1.2,2.8,0.7
		c5.7,12.8,9.3,26.2,10.8,40.2c0.2,2.1-0.5,2.5-2.4,2.4c-2.7-0.1-5.5-0.1-8.2,0c-6.3,0.2-11.1,5.2-11.1,11.3c0,6.1,4.9,11,11.2,11.1
		c2.9,0.1,5.7,0.1,8.6,0c1.7-0.1,2.1,0.6,1.9,2.2c-0.7,4.3-1.3,8.6-2,12.9c-0.2,1.4-0.5,2-2.4,1.8c-16.8-1.6-29.3,5.2-37.4,19.8
		c-13.1,23.7-26.1,47.5-39.1,71.3c-1.1,2-2.4,3.2-4.6,3.9C216.7,308.5,206.6,310.8,196.2,312z M375.3,389.1c-24.1,0-48.1,0-72.2,0
		c-23.9,0-47.9,0-71.8,0c-12,0-17.7-9.7-11.9-20.2c23.4-42.6,46.9-85.2,70.3-127.8c4.4-7.9,10.9-10.9,18.1-8.4
		c4.1,1.5,6.6,4.6,8.7,8.3c20.1,36.7,40.4,73.4,60.6,110.1c3.3,6.1,6.7,12.2,10,18.3C392.4,379.4,386.6,389.1,375.3,389.1z
		 M303,269.4c-6.2,0.1-11,5-11.1,11.6c-0.1,4.9,0,9.7,0,14.6c0,4.7,0,9.5,0,14.2c0.1,6.9,4.8,11.9,11.2,12c6.4,0,11.2-5,11.3-11.9
		c0.1-9.6,0.1-19.2,0-28.8C314.3,274.3,309.4,269.3,303,269.4z M303.3,344.2c-6.1-0.1-11.2,4.9-11.4,11c-0.1,6,4.8,11.3,10.9,11.5
		c6.2,0.2,11.5-5,11.6-11.1C314.4,349.4,309.3,344.3,303.3,344.2z"/>
	<path class="st1" d="M248.1,170.6c-10.5,0-21-0.1-31.4,0c-2.1,0-3.2-0.4-4.2-2.5c-3.4-7.9-9.1-13.6-17-17c-2-0.8-2.4-1.9-2.4-3.9
		c0.1-6.6,0-13.2,0-19.8c0-6.1,0-12.2,0-18.3c0-8.2-4.4-13.4-11.3-13.3c-6.9,0.1-11.1,5.2-11.1,13.5c0,12.5-0.1,25,0.1,37.4
		c0,2.4-0.6,3.5-2.9,4.7c-11.7,5.6-18.4,15.1-19.5,28c-1.3,16.3,9.5,31,25.4,35.1c15.6,4,31.9-3.8,38.7-18.7c1-2.2,2.1-2.8,4.4-2.8
		c10.5,0.1,20.9,0.1,31.4,0c7.2,0,12.3-4.7,12.2-11.3C260.4,175.2,255.3,170.6,248.1,170.6z M181.7,193.1c-6-0.1-11.1-5.2-11.1-11.3
		c0-6.1,5.1-11.1,11.2-11.2c6,0,11.2,5,11.3,11.1C193.2,187.9,187.9,193.1,181.7,193.1z"/>
	<path class="st1" d="M314.3,355.5c-0.1,6.2-5.4,11.4-11.6,11.1c-6.1-0.2-11-5.4-10.9-11.5c0.1-6,5.3-11,11.4-11
		S314.4,349.4,314.3,355.5z"/>
	<path class="st1" d="M291.9,295.6c0-4.9,0-9.7,0-14.6c0.1-6.6,4.8-11.6,11.1-11.6c6.4-0.1,11.3,4.9,11.3,11.8
		c0.1,9.6,0.1,19.2,0,28.8c0,6.9-4.9,11.9-11.3,11.9c-6.4,0-11.1-5.1-11.2-12C291.8,305.1,291.9,300.3,291.9,295.6z"/>
	<path class="st1" d="M248.1,170.6c-10.5,0-21-0.1-31.4,0c-2.1,0-3.2-0.4-4.2-2.5c-3.4-7.9-9.1-13.6-17-17c-2-0.8-2.4-1.9-2.4-3.9
		c0.1-6.6,0-13.2,0-19.8c0-6.1,0-12.2,0-18.3c0-8.2-4.4-13.4-11.3-13.3c-6.9,0.1-11.1,5.2-11.1,13.5c0,12.5-0.1,25,0.1,37.4
		c0,2.4-0.6,3.5-2.9,4.7c-11.7,5.6-18.4,15.1-19.5,28c-1.3,16.3,9.5,31,25.4,35.1c15.6,4,31.9-3.8,38.7-18.7c1-2.2,2.1-2.8,4.4-2.8
		c10.5,0.1,20.9,0.1,31.4,0c7.2,0,12.3-4.7,12.2-11.3C260.4,175.2,255.3,170.6,248.1,170.6z M181.7,193.1c-6-0.1-11.1-5.2-11.1-11.3
		c0-6.1,5.1-11.1,11.2-11.2c6,0,11.2,5,11.3,11.1C193.2,187.9,187.9,193.1,181.7,193.1z"/>
	<path class="st1" d="M314.3,309.9c0,6.9-4.9,11.9-11.3,11.9c-6.4,0-11.1-5.1-11.2-12c0-4.7,0-9.5,0-14.2c0-4.9,0-9.7,0-14.6
		c0.1-6.6,4.8-11.6,11.1-11.6c6.4-0.1,11.3,4.9,11.3,11.8C314.4,290.7,314.4,300.3,314.3,309.9z"/>
	<path class="st1" d="M314.3,355.5c-0.1,6.2-5.4,11.4-11.6,11.1c-6.1-0.2-11-5.4-10.9-11.5c0.1-6,5.3-11,11.4-11
		S314.4,349.4,314.3,355.5z"/>
</g>
<g class="st0">
	<path class="st1" d="M205.6,97.6c0,4.4-3.8,8.3-8.2,8.4c-4.6,0.1-8.6-3.9-8.5-8.5c0.1-4.5,3.9-8.2,8.4-8.2
		C201.8,89.4,205.6,93.1,205.6,97.6z"/>
	<path class="st1" d="M240.2,137.3c-6.8,4.5-15.3,7-22.5,6.7c-8-0.3-15.4-2.5-22.1-7c-4.3-2.9-5.3-6.9-2.8-10.5
		c2.4-3.4,6.2-3.9,10.5-1.3c9.8,6.1,19.6,6.4,29.4,0.1c4.5-2.8,8.4-2.3,10.8,1.3C245.9,130.4,244.7,134.3,240.2,137.3z"/>
	<path class="st1" d="M247.3,97.8c-0.1,4.5-3.8,8.3-8.3,8.3c-4.4,0-8.3-3.9-8.4-8.3c0-4.6,3.9-8.5,8.6-8.4
		C243.8,89.5,247.3,93.2,247.3,97.8z"/>
	<path class="st1" d="M247.5,251.4c-7-18.9-14-37.7-21.1-56.6c-1.2-3.1-3.2-5-6.6-5.1c-3.4-0.1-5.6,1.7-6.9,4.8
		c-7.5,18.9-15.1,37.8-22.6,56.8c-1.3,3.2-0.7,6.1,1.8,8.5c7,6.9,14,13.8,21.1,20.7c3.8,3.6,7.4,3.7,11.2,0.1
		c7.1-6.8,14.1-13.8,21.1-20.6c1.6-1.6,2.5-3.4,2.6-5.9C247.9,253.3,247.8,252.3,247.5,251.4z M231.5,254c-4,4.2-8,8.5-12.6,13.6
		c-4.7-5.1-8.6-9.4-12.6-13.6c-0.8-0.9-1.3-1.5-0.7-2.9c4.5-11.1,8.9-22.3,13.4-33.5c0.1-0.2,0.4-0.3,0.8-0.6
		c4.2,11.3,8.3,22.5,12.5,33.7C232.8,252.2,232.4,252.9,231.5,254z"/>
	<path class="st1" d="M294.5,77.3c-1.5-1.2-2.6-2.5-3.6-4.2c-17-29-42.2-44.5-76-43.2c-33.3,1.2-57.1,18.2-72,47.8
		c-0.9,1.7-1.9,3.1-3.4,4.4c-30,25.3-44.8,57.7-45.8,95.4c0.1,7.8,0.3,14.3,1.5,20.7c8.4,46.6,34.5,79.3,77.9,98
		c19.1,8.2,39.3,10.6,60,8.5c60.8-6.3,108.9-55.8,112.6-116.7C348.5,142.1,330.7,105.3,294.5,77.3z M128,232.6
		c-0.5,2.4-0.8,4.9-1.2,7.5c-24.5-32.1-28.4-92.5,8.7-134.1c-1.3,21.1,4.1,39.6,16.2,56.1c3.2,4.3,6.7,8.4,10.8,11.8
		c2.6,2.1,1.9,3-0.4,4.6c-11.9,8.5-21.2,19.1-28.2,31.9C130,217.3,129.7,225.1,128,232.6z M297.2,260.4c-6.6,5.9-13.5,11.4-21.9,16
		c0.2-12.4-1.6-24.3,4.2-35.6c2.3-4.5,0.5-8.8-3.5-10.2c-4-1.5-7.7,0.5-9.5,5.3c-1.1,2.9-2.2,5.8-3.2,8.8
		c-1.7,5.1-2.8,10.2-2.3,15.7c0.5,6.8-0.1,13.7,0,20.6c0,2-0.8,2.8-2.6,3.4c-26.8,9.6-53.4,9.1-79.9-1c-1.7-0.7-2.5-1.6-2.5-3.5
		c0.1-7.7-0.7-15.4,0.3-23.1c0.2-1.7-0.2-3.5-0.6-5.2c-1.4-5.8-3.3-11.5-5.7-16.9c-1.6-3.8-5.4-5.3-8.9-4c-3.4,1.3-5.2,5.1-4.2,8.9
		c0.1,0.2,0.1,0.5,0.2,0.7c5.6,10.7,5.1,22.3,4.4,34.3c-5.6-3.1-10.3-7.2-15.3-10.9c-5.4-4-7.3-8.6-6.3-15.3
		c1.4-9.4,2.5-18.8,5-27.9c1.7-6.2,5.9-11.2,9.9-16.1c5.8-7.1,12.7-13,20.4-17.9c1.9-1.2,3.3-1.1,5.1-0.1c4.8,2.6,9.9,4.6,15.2,6
		c5.1,1.4,8.9-0.2,10.1-4.2c1.3-4.2-1.1-7.8-6.2-9.3c-24.7-7.5-40.8-23.7-47.8-48.4C139.1,86,175,41.4,221,43.8
		c32,1.7,57.9,23.8,64.6,55.1c6.4,30.2-9,61.4-37.4,75.6c-3.5,1.8-6.6,3.7-6.2,8.3c0.4,4.4,4.7,7.1,9,5.9c0.5-0.1,1-0.2,1.4-0.5
		c5-4.2,9-1.7,13.4,1.5c21.2,15.6,31.9,36.9,34.6,62.7C300.7,255.6,299.8,258.1,297.2,260.4z M313,241.1
		c-5.3-27.4-18.7-49.1-41.7-64.8c22.3-20.2,32.2-45,29-74.8C335.8,135.4,343.6,197.5,313,241.1z"/>
	<path class="st1" d="M269.9,348.8c-1.4-3.4-4-4.8-7.7-4.7c-8,0.1-16-0.1-23.9,0.1c-2.4,0-3.4-0.6-4.1-2.9
		c-2.6-8.4-5.4-16.8-8.2-25.1c-1.6-4.8-3.7-6.7-7.4-6.6c-4.2,0.1-6,2.8-7.2,6.4c-2.7,8.5-5.7,17-8.3,25.5c-0.7,2.2-1.7,2.9-3.9,2.8
		c-4-0.2-8,0-12,0c-3.9,0-7.7,0.1-11.6,0c-3.9-0.1-6.9,1-8.2,5c-1.1,3.3,0,6,3.9,8.8c6.4,4.6,12.7,9.2,19.2,13.6
		c1.8,1.2,2.1,2.2,1.4,4.3c-2.7,7.9-5.1,15.8-7.8,23.7c-1.2,3.6-1.4,7,2,9.4c3.3,2.5,6.5,1.5,9.6-0.8c6.8-5,13.8-9.8,20.6-14.8
		c1.8-1.3,3-1.4,4.8,0c6.8,5,13.8,9.8,20.6,14.8c3.1,2.3,6.2,3.1,9.6,0.9c2.8-1.9,3.5-5.1,2.1-9.4c-2.6-7.9-5.1-15.8-7.9-23.7
		c-0.8-2.2-0.2-3.2,1.6-4.5c6.6-4.5,13-9.2,19.5-13.8C269.9,355,271.1,351.9,269.9,348.8z M230.2,373.9c1.1,3.4,2.2,6.8,3.5,10.9
		c-3.8-2.7-7-4.9-10.2-7.2c-3.4-2.5-6.6-2.4-9.9,0.1c-3.1,2.3-6.2,4.4-10,7.1c1.5-4.6,2.6-8.3,3.9-12c1.2-3.6,0.1-6.4-2.7-8.5
		c-2.5-1.9-5-3.6-7.9-5.7c2.8-1,5.5-0.4,8.1-0.5c6.1-0.1,7.8-1.3,9.8-7.1c1.2-3.7,2.5-7.5,4-12.1c1.7,5.1,3.1,9.3,4.4,13.5
		c1.2,3.8,3.8,5.7,7.8,5.7h10.2c-3.1,2.2-5.4,3.9-7.6,5.5C229.3,366.7,228.6,368.9,230.2,373.9z"/>
	<path class="st1" d="M172.3,328.2c-1.3-3.8-4.2-5-7.9-5c-5.5,0-11-0.1-16.5,0.1c-2.1,0.1-3-0.6-3.7-2.6c-1.8-6.1-4-12-5.9-18.1
		c-1.1-3.6-3.2-5.9-7.2-5.9c-3.8,0-5.8,2.3-6.9,5.7c-1.1,3.5-2.3,7.1-3.4,10.6c-1.1,3.3-1.4,7.6-3.7,9.5c-2.5,2.1-6.9,0.4-9.9,0.6
		c-3.4,0-6.3,0-9.2,0c-3.7,0-6.6,1.4-7.7,5.2c-1.1,3.7,0.6,6.2,3.5,8.3c4.6,3.2,9.1,6.5,13.7,9.7c1.5,1,1.8,1.9,1.2,3.7
		c-2,5.6-3.7,11.4-5.6,17c-1.2,3.6-0.9,6.7,2.3,9c3,2.2,6.1,1.6,9-0.5c4.8-3.5,9.8-6.9,14.6-10.5c1.7-1.3,2.9-1.5,4.8-0.1
		c4.8,3.6,9.7,7,14.6,10.5c3,2.2,6.2,2.8,9.3,0.5c3-2.3,3.2-5.3,2.1-8.8c-1.8-5.3-3.3-10.7-5.3-15.9c-1-2.7-0.5-4.1,2-5.7
		c4.3-2.7,8.3-5.9,12.5-8.8C171.8,334.7,173.6,332.1,172.3,328.2z M139.5,351.7c-5.4-4.9-10.6-5.5-16.1,0.2c2-5.8,2.6-10.7-3.5-14.2
		c8.4,1,9.7-5,11.5-11.3c2.1,6,3.1,12.4,11.9,11.1C136.8,341,137.3,346,139.5,351.7z"/>
	<path class="st1" d="M349.6,328.4c-1.2-3.8-4-5.1-7.8-5.1c-5.6,0-11.2-0.1-16.8,0c-2,0-2.8-0.6-3.4-2.5c-1.9-6.3-4-12.5-6.1-18.8
		c-1.1-3.2-3.2-5.3-6.9-5.3c-3.6,0-5.8,2-6.9,5.2c-1.3,3.6-2.3,7.4-3.6,11c-1.2,3.4-1.1,8.2-3.8,9.8c-2.7,1.6-7,0.4-10.6,0.4v0.2
		c-2.9,0-5.7,0-8.6,0c-3.6,0-6.3,1.4-7.5,5c-1.2,3.6,0.4,6.3,3.3,8.3c4.6,3.2,9.1,6.6,13.7,9.7c1.6,1.1,2,2,1.3,3.9
		c-1.9,5.3-3.6,10.6-5.3,15.9c-1.6,4.9-1.1,7.7,1.8,9.8c2.9,2.2,5.8,1.9,9.9-1c4.5-3.2,9.1-6.2,13.4-9.6c2.1-1.6,3.5-1.9,5.7-0.1
		c4.5,3.5,9.3,6.7,13.9,10.1c3,2.2,6.1,3,9.3,0.7c3.2-2.3,3.5-5.4,2.2-9c-1.9-5.5-3.5-11.1-5.5-16.6c-0.8-2.1-0.3-3.1,1.4-4.2
		c4.5-3.1,8.9-6.3,13.4-9.5C349.1,334.6,350.7,332.1,349.6,328.4z M317.1,351.8c-8.4-4.8-8.4-4.8-17,0.1c2.6-5.7,3.1-10.7-3.2-14.2
		c8.5,1.1,10-4.9,11.6-11c4.6,10.6,4.6,10.6,12.8,10.9C314.1,341.1,314.6,346.1,317.1,351.8z"/>
	<path class="st1" d="M94.1,307c-1.1-3.3-3.9-4.7-7.3-4.7c-3.4,0-6.8-0.2-10.1,0.1c-2.5,0.2-3.4-0.9-4.1-3.1
		c-1.2-4.1-2.4-8.1-3.9-12c-1.1-2.9-3.3-4.6-6.6-4.6c-3.3,0-5.5,1.7-6.6,4.6c-1,2.5-1.7,5.2-2.6,7.8c-2.4,7.3-2.4,7.3-9.9,7.3
		c-1.9,0-3.7,0-5.6,0c-3.4,0-6.2,1.4-7.3,4.7c-1.2,3.4-0.1,6.4,3,8.5c3,2.1,5.8,4.2,8.8,6.2c1.4,0.9,1.8,1.8,1.2,3.4
		c-1.3,3.6-2.3,7.3-3.6,11c-1.2,3.5-0.7,6.5,2.3,8.6c3,2.2,6,1.7,9-0.5c3.1-2.3,6.3-4.4,9.4-6.8c1.4-1.1,2.5-1.1,3.9,0
		c3.1,2.3,6.3,4.5,9.4,6.8c2.9,2.1,6,2.7,9,0.5c3-2.2,3.6-5.2,2.3-8.6c-1.2-3.5-2.2-7.1-3.5-10.6c-0.8-1.9-0.3-2.9,1.3-4
		c2.9-1.9,5.7-4,8.5-6C94.2,313.3,95.3,310.4,94.1,307z M63.4,320.8c-3.2,0.1-5.2-0.5-5.1-4.7c0.9-0.8,2.3-2.1,3.7-3.3
		c1.1,1.6,4,2,3.8,4.2C65.7,318,66.6,320.7,63.4,320.8z"/>
	<path class="st1" d="M410,307.3c-1-3.4-3.7-4.9-7.1-5c-3.6-0.1-7.2-0.1-10.8,0c-2,0.1-2.8-0.5-3.4-2.4c-1.2-4.2-2.6-8.3-4.1-12.4
		c-1.1-3.1-3.3-4.9-6.8-4.9c-3.4,0-5.6,1.9-6.7,5c-0.9,2.5-1.6,5-2.4,7.4c-2.4,7.2-2.4,7.2-10,7.2c-2,0-4,0-6,0
		c-3.3,0.1-5.9,1.6-6.9,4.8c-1.1,3.3-0.1,6.1,2.8,8.2c2.8,2,5.6,4.2,8.5,6c2,1.2,2.3,2.4,1.4,4.6c-1.3,3.3-2.2,6.9-3.4,10.3
		c-1.2,3.3-0.6,6.2,2.1,8.4c2.9,2.3,6,2,9-0.2c3-2.2,6.2-4.2,9.1-6.5c1.9-1.6,3.3-1.4,5.1,0.1c2.9,2.3,6.1,4.4,9.1,6.5
		c2.8,2,5.8,2.3,8.7,0.2c2.8-2.1,3.5-5,2.4-8.3c-1.1-3.2-1.9-6.4-3.2-9.5c-1.1-2.7-0.9-4.5,1.9-6c2.7-1.5,5.1-3.6,7.7-5.4
		C409.9,313.4,411,310.6,410,307.3z M379.6,320.6c-3.9,1.2-5.6-0.7-5.5-3.8c0-1.8,2.7-2.5,3.8-4c0.2-0.2,4.2,3.8,4,4.1
		C380.8,318.1,382,320.7,379.6,320.6z"/>
	<path class="st1" d="M205.6,97.6c0,4.4-3.8,8.3-8.2,8.4c-4.6,0.1-8.6-3.9-8.5-8.5c0.1-4.5,3.9-8.2,8.4-8.2
		C201.8,89.4,205.6,93.1,205.6,97.6z"/>
	<path class="st1" d="M240.2,137.3c-6.8,4.5-15.3,7-22.5,6.7c-8-0.3-15.4-2.5-22.1-7c-4.3-2.9-5.3-6.9-2.8-10.5
		c2.4-3.4,6.2-3.9,10.5-1.3c9.8,6.1,19.6,6.4,29.4,0.1c4.5-2.8,8.4-2.3,10.8,1.3C245.9,130.4,244.7,134.3,240.2,137.3z"/>
	<path class="st1" d="M247.3,97.8c-0.1,4.5-3.8,8.3-8.3,8.3c-4.4,0-8.3-3.9-8.4-8.3c0-4.6,3.9-8.5,8.6-8.4
		C243.8,89.5,247.3,93.2,247.3,97.8z"/>
	<path class="st1" d="M247.5,251.4c-7-18.9-14-37.7-21.1-56.6c-1.2-3.1-3.2-5-6.6-5.1c-3.4-0.1-5.6,1.7-6.9,4.8
		c-7.5,18.9-15.1,37.8-22.6,56.8c-1.3,3.2-0.7,6.1,1.8,8.5c7,6.9,14,13.8,21.1,20.7c3.8,3.6,7.4,3.7,11.2,0.1
		c7.1-6.8,14.1-13.8,21.1-20.6c1.6-1.6,2.5-3.4,2.6-5.9C247.9,253.3,247.8,252.3,247.5,251.4z M231.5,254c-4,4.2-8,8.5-12.6,13.6
		c-4.7-5.1-8.6-9.4-12.6-13.6c-0.8-0.9-1.3-1.5-0.7-2.9c4.5-11.1,8.9-22.3,13.4-33.5c0.1-0.2,0.4-0.3,0.8-0.6
		c4.2,11.3,8.3,22.5,12.5,33.7C232.8,252.2,232.4,252.9,231.5,254z"/>
	<path class="st1" d="M247.5,251.4c-7-18.9-14-37.7-21.1-56.6c-1.2-3.1-3.2-5-6.6-5.1c-3.4-0.1-5.6,1.7-6.9,4.8
		c-7.5,18.9-15.1,37.8-22.6,56.8c-1.3,3.2-0.7,6.1,1.8,8.5c7,6.9,14,13.8,21.1,20.7c3.8,3.6,7.4,3.7,11.2,0.1
		c7.1-6.8,14.1-13.8,21.1-20.6c1.6-1.6,2.5-3.4,2.6-5.9C247.9,253.3,247.8,252.3,247.5,251.4z M231.5,254c-4,4.2-8,8.5-12.6,13.6
		c-4.7-5.1-8.6-9.4-12.6-13.6c-0.8-0.9-1.3-1.5-0.7-2.9c4.5-11.1,8.9-22.3,13.4-33.5c0.1-0.2,0.4-0.3,0.8-0.6
		c4.2,11.3,8.3,22.5,12.5,33.7C232.8,252.2,232.4,252.9,231.5,254z"/>
	<path class="st1" d="M240.2,137.3c-6.8,4.5-15.3,7-22.5,6.7c-8-0.3-15.4-2.5-22.1-7c-4.3-2.9-5.3-6.9-2.8-10.5
		c2.4-3.4,6.2-3.9,10.5-1.3c9.8,6.1,19.6,6.4,29.4,0.1c4.5-2.8,8.4-2.3,10.8,1.3C245.9,130.4,244.7,134.3,240.2,137.3z"/>
	<path class="st1" d="M205.6,97.6c0,4.4-3.8,8.3-8.2,8.4c-4.6,0.1-8.6-3.9-8.5-8.5c0.1-4.5,3.9-8.2,8.4-8.2
		C201.8,89.4,205.6,93.1,205.6,97.6z"/>
	<path class="st1" d="M247.3,97.8c-0.1,4.5-3.8,8.3-8.3,8.3c-4.4,0-8.3-3.9-8.4-8.3c0-4.6,3.9-8.5,8.6-8.4
		C243.8,89.5,247.3,93.2,247.3,97.8z"/>
</g>
<g class="st0">
	<path class="st2" d="M242.6,164.1c-7.3-0.1-14.7,0-22,0c-7.6,0-15.2,0-22.8,0c-5.9,0-9.7,3.4-9.5,8.2c0.1,4.8,3.8,7.9,9.5,7.9
		c15,0,29.9,0,44.9,0c5.9,0,9.7-3.4,9.5-8.2C251.9,167.2,248.3,164.1,242.6,164.1z M275.7,132.3c-26.4-0.1-52.8,0-79.2,0
		c-2.2,0-4.2,0.6-5.8,2.2c-2.4,2.4-3.2,5.4-1.9,8.6c1.4,3.5,4.1,5.2,7.9,5.2c13.2,0,26.4,0,39.6,0c13.1,0,26.1,0.1,39.2,0
		c5.1,0,8.4-3.4,8.4-8C283.9,135.5,280.7,132.3,275.7,132.3z M275.7,132.3c-26.4-0.1-52.8,0-79.2,0c-2.2,0-4.2,0.6-5.8,2.2
		c-2.4,2.4-3.2,5.4-1.9,8.6c1.4,3.5,4.1,5.2,7.9,5.2c13.2,0,26.4,0,39.6,0c13.1,0,26.1,0.1,39.2,0c5.1,0,8.4-3.4,8.4-8
		C283.9,135.5,280.7,132.3,275.7,132.3z M242.6,164.1c-7.3-0.1-14.7,0-22,0c-7.6,0-15.2,0-22.8,0c-5.9,0-9.7,3.4-9.5,8.2
		c0.1,4.8,3.8,7.9,9.5,7.9c15,0,29.9,0,44.9,0c5.9,0,9.7-3.4,9.5-8.2C251.9,167.2,248.3,164.1,242.6,164.1z M242.6,164.1
		c-7.3-0.1-14.7,0-22,0c-7.6,0-15.2,0-22.8,0c-5.9,0-9.7,3.4-9.5,8.2c0.1,4.8,3.8,7.9,9.5,7.9c15,0,29.9,0,44.9,0
		c5.9,0,9.7-3.4,9.5-8.2C251.9,167.2,248.3,164.1,242.6,164.1z M275.7,132.3c-26.4-0.1-52.8,0-79.2,0c-2.2,0-4.2,0.6-5.8,2.2
		c-2.4,2.4-3.2,5.4-1.9,8.6c1.4,3.5,4.1,5.2,7.9,5.2c13.2,0,26.4,0,39.6,0c13.1,0,26.1,0.1,39.2,0c5.1,0,8.4-3.4,8.4-8
		C283.9,135.5,280.7,132.3,275.7,132.3z M275.7,132.3c-26.4-0.1-52.8,0-79.2,0c-2.2,0-4.2,0.6-5.8,2.2c-2.4,2.4-3.2,5.4-1.9,8.6
		c1.4,3.5,4.1,5.2,7.9,5.2c13.2,0,26.4,0,39.6,0c13.1,0,26.1,0.1,39.2,0c5.1,0,8.4-3.4,8.4-8C283.9,135.5,280.7,132.3,275.7,132.3z
		 M242.6,164.1c-7.3-0.1-14.7,0-22,0c-7.6,0-15.2,0-22.8,0c-5.9,0-9.7,3.4-9.5,8.2c0.1,4.8,3.8,7.9,9.5,7.9c15,0,29.9,0,44.9,0
		c5.9,0,9.7-3.4,9.5-8.2C251.9,167.2,248.3,164.1,242.6,164.1z M403,228.2c-11.6-0.1-23.2-0.3-34.8-0.1c-3.6,0.1-4.5-0.8-4.5-4.4
		c0.1-37.3,0-74.6,0.1-111.8c0-4.9-0.9-9-5-12.1c-2.4-1.8-4.2-4.2-6.4-6.3c-12.5-12.5-25.1-25-37.7-37.4c-1.9-1.9-4-3.7-7.1-3.7
		c-47.6,0.1-95.2,0-142.9,0.1c-5.2,0-8.3,3.1-8.4,8.4c-0.1,4.1-0.2,8.2,0,12.3c0.2,2.7-0.8,3.3-3.3,3.2c-11.8-0.1-23.7-0.1-35.5-0.1
		c-6,0-9,2.9-9.1,8.9c-0.1,6.5-0.2,13,0.1,19.5c0.1,3-0.8,3.7-3.7,3.7c-21.8-0.1-43.6,0-65.4-0.2c-4.8,0-8.4,1.3-10.8,5.5v267.2
		c1,5.8,5.2,6.6,10.2,6.3c1.6-0.1,3.2,0.1,4.9,0.1c78,0.6,156.1,0.4,234.1,0.3c25.8,0,51.6,0.1,77.4-0.4c4.6-0.1,7.1-2,8.5-6.2
		c16.2-47.3,32-94.6,47.2-142.2C412.8,232.8,409.4,228.2,403,228.2z M315.9,98c0-5.8,0-11.6,0-17.7c6.7,6.8,13.2,13.3,19.8,20
		c-5.9,0-12-0.1-18,0C315.8,100.3,315.9,99.3,315.9,98z M172.2,72c0-3.1,0.7-3.9,3.9-3.9c40,0.1,80,0.1,120,0c3.4,0,4.1,1,4,4.2
		c-0.2,11.3-0.1,22.7-0.1,34c0,7.1,2.6,9.8,9.7,9.8c11.6,0,23.2,0.1,34.8-0.1c2.8,0,3.5,0.7,3.5,3.5c-0.1,34.9-0.1,69.8,0,104.7
		c0,3.3-1.1,3.8-4,3.8c-27.9-0.1-55.8-0.1-83.8-0.1c-28.1,0-56.1-0.1-84.1,0.1c-3.1,0-3.9-0.7-3.9-3.8
		C172.3,173.5,172.3,122.8,172.2,72z M124.3,94.9c0-2.1,0.6-2.7,2.7-2.7c8.7,0.1,17.5,0.2,26.2,0c2.8-0.1,3.2,1,3.2,3.5
		c-0.1,21.6,0,43.1,0,64.7c0,21.3-0.1,42.6,0.1,63.9c0,3.2-0.9,3.9-4,3.9c-8.5-0.2-16.9-0.1-25.4,0c-2.1,0-2.7-0.6-2.7-2.7
		C124.4,181.9,124.4,138.4,124.3,94.9z M44.5,328.5c0-67.2,0-134-0.1-200.8c0-3.1,1-3.6,3.8-3.6c19,0.1,37.9,0.1,56.9,0
		c2.7,0,3.5,0.6,3.5,3.4c-0.1,32.3-0.1,64.6,0,96.9c0,3.1-0.9,3.7-3.8,3.6c-6.6-0.2-13.2-0.1-19.8,0.1c-5.4,0.2-6.8,1.4-8.5,6.7
		c-10,29.9-19.9,59.9-30,89.8C46,325.9,46,327.5,44.5,328.5z M383.1,272.5c-10.6,32-21.3,63.9-31.9,95.9c-0.8,2.5-2,3.3-4.7,3.3
		c-98.4-0.1-196.8-0.1-295.2,0c-3.3,0-3.6-0.7-2.6-3.7c13.5-40.4,27-80.8,40.4-121.3c0.8-2.3,1.8-2.9,4.2-2.9
		c98.7,0.1,197.3,0.1,295.9,0.1h3.3C389.3,253.7,386.3,263.1,383.1,272.5z M196.6,148.1c13.2,0,26.4,0,39.6,0
		c13.1,0,26.1,0.1,39.2,0c5.1,0,8.4-3.4,8.4-8c0-4.6-3.2-7.8-8.2-7.8c-26.4-0.1-52.8,0-79.2,0c-2.2,0-4.2,0.6-5.8,2.2
		c-2.4,2.4-3.2,5.4-1.9,8.6C190.1,146.5,192.9,148.1,196.6,148.1z M197.7,180.1c15,0,29.9,0,44.9,0c5.9,0,9.7-3.4,9.5-8.2
		c-0.1-4.7-3.8-7.8-9.5-7.9c-7.3-0.1-14.7,0-22,0c-7.6,0-15.2,0-22.8,0c-5.9,0-9.7,3.4-9.5,8.2C188.3,177,192,180.1,197.7,180.1z
		 M242.6,164.1c-7.3-0.1-14.7,0-22,0c-7.6,0-15.2,0-22.8,0c-5.9,0-9.7,3.4-9.5,8.2c0.1,4.8,3.8,7.9,9.5,7.9c15,0,29.9,0,44.9,0
		c5.9,0,9.7-3.4,9.5-8.2C251.9,167.2,248.3,164.1,242.6,164.1z M275.7,132.3c-26.4-0.1-52.8,0-79.2,0c-2.2,0-4.2,0.6-5.8,2.2
		c-2.4,2.4-3.2,5.4-1.9,8.6c1.4,3.5,4.1,5.2,7.9,5.2c13.2,0,26.4,0,39.6,0c13.1,0,26.1,0.1,39.2,0c5.1,0,8.4-3.4,8.4-8
		C283.9,135.5,280.7,132.3,275.7,132.3z M275.7,132.3c-26.4-0.1-52.8,0-79.2,0c-2.2,0-4.2,0.6-5.8,2.2c-2.4,2.4-3.2,5.4-1.9,8.6
		c1.4,3.5,4.1,5.2,7.9,5.2c13.2,0,26.4,0,39.6,0c13.1,0,26.1,0.1,39.2,0c5.1,0,8.4-3.4,8.4-8C283.9,135.5,280.7,132.3,275.7,132.3z
		 M242.6,164.1c-7.3-0.1-14.7,0-22,0c-7.6,0-15.2,0-22.8,0c-5.9,0-9.7,3.4-9.5,8.2c0.1,4.8,3.8,7.9,9.5,7.9c15,0,29.9,0,44.9,0
		c5.9,0,9.7-3.4,9.5-8.2C251.9,167.2,248.3,164.1,242.6,164.1z"/>
	<path class="st2" d="M252.1,171.9c0.1,4.8-3.7,8.2-9.5,8.2c-14.9,0-29.9,0-44.9,0c-5.7,0-9.4-3.1-9.5-7.9c-0.1-4.8,3.7-8.2,9.5-8.2
		c7.6-0.1,15.2,0,22.8,0c7.3,0,14.7,0,22,0C248.3,164.1,251.9,167.2,252.1,171.9z"/>
	<path class="st2" d="M283.9,140.1c0,4.7-3.3,8-8.4,8c-13.1,0.1-26.2,0-39.2,0c-13.2,0-26.4,0-39.6,0c-3.7,0-6.5-1.7-7.9-5.2
		c-1.2-3.2-0.5-6.1,1.9-8.6c1.6-1.6,3.6-2.2,5.8-2.2c26.4,0,52.8,0,79.2,0C280.7,132.3,283.9,135.5,283.9,140.1z"/>
	<path class="st2" d="M283.9,140.1c0,4.7-3.3,8-8.4,8c-13.1,0.1-26.2,0-39.2,0c-13.2,0-26.4,0-39.6,0c-3.7,0-6.5-1.7-7.9-5.2
		c-1.2-3.2-0.5-6.1,1.9-8.6c1.6-1.6,3.6-2.2,5.8-2.2c26.4,0,52.8,0,79.2,0C280.7,132.3,283.9,135.5,283.9,140.1z"/>
	<path class="st2" d="M252.1,171.9c0.1,4.8-3.7,8.2-9.5,8.2c-14.9,0-29.9,0-44.9,0c-5.7,0-9.4-3.1-9.5-7.9c-0.1-4.8,3.7-8.2,9.5-8.2
		c7.6-0.1,15.2,0,22.8,0c7.3,0,14.7,0,22,0C248.3,164.1,251.9,167.2,252.1,171.9z"/>
</g>
<g>
	<path class="st3" d="M321.3,300.6c-3.5-24.6-16.7-41.2-40-49.8c-11-4.1-22.4-6.3-33.8-8.6c-1.9-0.4-3.2-0.1-4.5,1.3
		c-5.1,5.8-11.6,8.7-19.3,9c-9.8,0.5-19.1-0.6-26.2-8.4c-1.5-1.7-3.7-2-5.9-1.7c-12,1.9-23.7,4.7-34.9,9.2c-7.5,3-14.4,7-20.3,12.5
		c-10.7,9.9-15.5,22.7-17.7,36.7c-2.5,16-2.1,32.2-2.3,48.4c0,1.2,0.6,1.8,1.3,2.6c11.8,12.6,26.5,19.8,43,24.2
		c20.2,5.3,40.6,7.2,61.4,6c5.2,0,10.4,0.2,15.6,0c14.7-0.5,29.3-2.3,43.5-6.6c15.5-4.7,30-11.1,41-23.6c0.8-0.9,1.6-1.6,1.6-3
		C323.3,332.7,323.6,316.6,321.3,300.6z M303.8,347.3c-6.5,5.4-14,8.7-21.9,11.1c-15,4.6-30.5,6.8-46.2,7.1c-5,0.1-10,0-15.1,0
		c-14.7-0.1-29.5,0.1-44-2.6c-12.2-2.2-24-5.5-34.9-11.7c-0.7-0.4-1.4-0.9-2.2-1.4c-5-3-7.3-7.1-7.2-13.2
		c0.3-12.7,1.3-25.2,3.4-37.8c2.8-16.5,12.7-26.5,27.7-32.4c7.2-2.8,14.5-4.8,22-6.4c2.5-0.5,4.8-0.1,7.1,1.3
		c17.6,10.5,35.5,10.1,53.4,0.9c2.4-1.2,3.7-1.6,5.5,0.9c2.6,3.4,7.5,3.8,11,1.2c1.5-1.1,2.9-1.4,4.7-0.9c8.5,2.2,16.4,5.6,23.4,11
		c8.3,6.4,11.9,15.4,13.8,25.4c2.4,12.7,2.4,25.5,3.2,38.3C308,342.3,306.8,344.8,303.8,347.3z"/>
	<path class="st3" d="M274.4,133.6c-6.2-18.3-18.8-29.4-37.7-32.9c-8.9-1.7-18-1.3-27-0.8c-20.7,1.1-36.6,13.1-43.6,32.5
		c-3.8,10.6-4.7,21.5-4.4,32.6c0,3.7-0.2,7.3,0,11c1.1,18.4,8.3,34.1,21.5,46.8c13.8,13.2,30.2,18.8,49.2,14
		c16.3-4.2,27.9-14.8,36.3-29c6.1-10.4,9.4-21.6,9.8-33.7C279,160.5,278.9,146.9,274.4,133.6z M248.6,207.9
		c-3.5,4.2-7.5,7.6-12.3,10.2c-12,6.4-30.5,5.2-42.2-7.3c-9.6-10.3-14.9-22.4-16.2-36.3c-0.9-10.3,0-20.5,2-30.7
		c2.7-13.6,12-24.9,28.7-27.3c8.9-1.3,17.7-0.9,26.4,0.8c11.4,2.1,18.8,9.2,23,19.8c3.7,9.4,4,19.2,4.3,29.1
		C262.8,181.8,258.6,195.8,248.6,207.9z"/>
	<path class="st3" d="M381.6,84.2c-5.4-15-16.9-23.3-32.5-25.6c-8.4-1.2-17-1.2-25.4,0.2c-14.5,2.3-25,10-31.2,23.4
		c-3.7,8.1-5,16.7-5.6,25.5c-0.8,13.6,0.5,27,7,39.2c9,16.9,22.2,28.1,42.5,28.1c4.8-0.3,9.6,0.2,14.2-1.7c13-5.3,23-13.9,28.9-26.6
		C389.1,126.2,389.1,105.2,381.6,84.2z M369.4,124.7c-1.2,10.5-5.6,19.6-13.5,26.7c-11.5,10.3-27.8,10-39.1-0.6
		c-7.6-7.2-11.7-16.1-12.9-26.5c-0.4-3.8-0.4-7.6-0.4-11.5c0.2-6.1,0.3-12.3,1.8-18.2c2.6-10.4,9.1-17,19.6-19
		c7.9-1.5,15.9-1.5,23.8,0c10.9,2.1,18.3,10.7,19.9,22.7C369.9,107,370.4,115.9,369.4,124.7z"/>
	<path class="st3" d="M148.4,84.5c-5.3-15.3-17-23.6-32.8-25.9c-8.4-1.2-17-1.1-25.4,0.2C76.2,61,65.7,68.4,59.6,81.4
		c-4.5,9.6-5.8,19.8-6.1,30.3c-0.2,6.1,0.2,12.2,1.4,18.3c4,20,14.6,34.9,33.7,43.1c2.5,1.1,5,1.7,7.7,1.8c4.8,0.1,9.5,0.1,14.3,0
		c2.7-0.1,5.4-0.7,7.9-1.8c12.7-5.3,22.2-14.2,28-26.6C155.9,126.1,155.7,105.2,148.4,84.5z M126.6,147.1
		c-9.9,12.1-25.6,15.4-37.8,7.6c-8.7-5.5-14.5-13.4-16.8-23.5c-2.9-12.7-2.3-25.5,0.6-38.1c2.4-10,9.1-15.7,19-17.6
		c8-1.5,16.1-1.5,24.1,0c11.1,2.2,18.4,10.8,19.8,23c0.7,5.7,1.1,11.3,1.1,17.7C137.1,127.3,134.1,138,126.6,147.1z"/>
	<path class="st3" d="M283.8,202.3c1-5.9,1.7-11.2,3.3-16.5c0.6-2.1,2.2-3.2,4.1-3.8c7.6-2.3,15.3-3.9,23.1-5.3
		c2.2-0.4,3.7,1.1,5.1,2.4c8,7.5,17.2,8,27.1,4.8c3.6-1.2,6.3-3.7,8.8-6.4c0.7-0.7,1.3-1.4,2.6-1.1c10.2,2.2,20.4,4.2,30.3,7.8
		c20.4,7.5,31.2,22.3,33.7,43.6c1.2,10.3,1.9,20.6,2.2,31c0.2,6.5-2,11.5-7,15.8c-8.2,7.1-17.9,11.4-28.1,14.4
		c-14.6,4.3-29.6,6-44.8,6.7c-4.3,0.2-8.7,0.3-13,0.6c-1.4,0.1-1.9-0.4-2.2-1.7c-1-4.5-2.2-8.9-3.9-13.2c-0.7-1.6-0.3-2,1.4-2
		c8.5,0.1,17,0.1,25.5-0.6c14.2-1.1,28.2-3,41.6-8.2c5-1.9,9.5-4.5,13.1-8.6c0.6-0.6,1.1-1.2,1.1-2.2c-0.7-12.9-0.8-25.8-4.1-38.5
		c-2.3-9-7.5-15.4-15.9-19.4c-7.5-3.6-15.4-5.8-23.4-7.7c-1.2-0.3-2.1,0.2-3.1,0.8c-6.3,3.4-12.8,6.2-20.1,6.8
		c-9.7,0.9-18.8-1.2-27.2-5.9c-2.8-1.6-5.3-1.9-8.4-0.9c-6.3,2-12.7,3.7-18.8,6.3C285.9,201.7,285.1,201.9,283.8,202.3z"/>
	<path class="st3" d="M156.1,202c-1.4,0.2-2.3-0.4-3.3-0.9c-6.7-2.9-13.8-4.7-20.8-6.7c-1.4-0.4-2.4,0-3.6,0.6
		c-6.6,3.5-13.5,6.4-21.1,7c-8.9,0.8-17.3-1-25.1-5.3c-3.9-2.2-7.5-2.5-11.7-1.1c-7.2,2.4-14.4,4.5-21.1,8.2
		c-5.6,3.1-9.5,7.5-11.6,13.6c-4.6,13.5-5.5,27.4-4.8,41.5c0.2,3.4,2.2,5.6,5,7.3c7.7,4.6,16,7.4,24.7,9.3c13.1,2.7,26.4,3.9,39.8,4
		c3.5,0,7,0.3,10.4,0.4c1.7,0,2.3,0.7,1.8,2.4c-1.2,4.2-2.4,8.3-3.5,12.5c-0.3,1-0.5,1.7-1.8,1.6c-17.3-0.9-34.7-1-51.6-5.5
		c-11.1-2.9-21.7-6.8-31.1-13.5c-0.2-0.1-0.4-0.3-0.6-0.4c-6.6-4.7-10.3-10.5-9.8-19.1c0.8-13.7,0.9-27.4,4.5-40.7
		c4.1-15.5,13.9-25.7,28.6-31.6c10-4.1,20.4-6.4,30.9-8.6c2.7-0.6,4.6,0.7,6.3,2.4c8.1,7.6,17.4,8,27.3,4.6c3.5-1.2,6.1-3.7,8.5-6.3
		c0.7-0.8,1.4-1.3,2.6-1.1c7.9,1.8,15.8,3.2,23.6,5.4c2.9,0.8,4.5,2.4,5.1,5.3C154.4,192.1,155.6,196.9,156.1,202z"/>
</g>
</svg>
