<?xml version="1.0" encoding="utf-8"?>
<!-- Generator: Adobe Illustrator 25.4.1, SVG Export Plug-In . SVG Version: 6.00 Build 0)  -->
<svg version="1.1" id="Layer_1" xmlns="http://www.w3.org/2000/svg" xmlns:xlink="http://www.w3.org/1999/xlink" x="0px" y="0px"
	 viewBox="0 0 440 440" style="enable-background:new 0 0 440 440;" xml:space="preserve">
<style type="text/css">
	.st0{fill:#FFFFFF;}
</style>
<g>
	<path class="st0" d="M248.1,170.6c-10.5,0-21-0.1-31.4,0c-2.1,0-3.2-0.4-4.2-2.5c-3.4-7.9-9.1-13.6-17-17c-2-0.8-2.4-1.9-2.4-3.9
		c0.1-6.6,0-13.2,0-19.8c0-6.1,0-12.2,0-18.3c0-8.2-4.4-13.4-11.3-13.3c-6.9,0.1-11.1,5.2-11.1,13.5c0,12.5-0.1,25,0.1,37.4
		c0,2.4-0.6,3.5-2.9,4.7c-11.7,5.6-18.4,15.1-19.5,28c-1.3,16.3,9.5,31,25.4,35.1c15.6,4,31.9-3.8,38.7-18.7c1-2.2,2.1-2.8,4.4-2.8
		c10.5,0.1,20.9,0.1,31.4,0c7.2,0,12.3-4.7,12.2-11.3C260.4,175.2,255.3,170.6,248.1,170.6z M181.7,193.1c-6-0.1-11.1-5.2-11.1-11.3
		c0-6.1,5.1-11.1,11.2-11.2c6,0,11.2,5,11.3,11.1C193.2,187.9,187.9,193.1,181.7,193.1z"/>
	<path class="st0" d="M303.3,344.2c-6.1-0.1-11.2,4.9-11.4,11c-0.1,6,4.8,11.3,10.9,11.5c6.2,0.2,11.5-5,11.6-11.1
		C314.4,349.4,309.3,344.3,303.3,344.2z M314.3,281.1c0-6.8-4.9-11.8-11.3-11.8c-6.2,0.1-11,5-11.1,11.6c-0.1,4.9,0,9.7,0,14.6
		c0,4.7,0,9.5,0,14.2c0.1,6.9,4.8,11.9,11.2,12c6.4,0,11.2-5,11.3-11.9C314.4,300.3,314.4,290.7,314.3,281.1z M291.9,309.8
		c0.1,6.9,4.8,11.9,11.2,12c6.4,0,11.2-5,11.3-11.9c0.1-9.6,0.1-19.2,0-28.8c0-6.8-4.9-11.8-11.3-11.8c-6.2,0.1-11,5-11.1,11.6
		c-0.1,4.9,0,9.7,0,14.6C291.9,300.3,291.8,305.1,291.9,309.8z M303.3,344.2c-6.1-0.1-11.2,4.9-11.4,11c-0.1,6,4.8,11.3,10.9,11.5
		c6.2,0.2,11.5-5,11.6-11.1C314.4,349.4,309.3,344.3,303.3,344.2z M406.8,358.9c-19.4-35.5-38.9-70.9-58.4-106.2
		c-5.3-9.6-10-19.5-16.2-28.5c-1.4-2-2-3.6-1.4-6c5.9-23.4,6.6-47,0.5-70.3c-16.5-63-56.8-102-120.4-116.5
		c-5.9-1.3-11.9-1.9-17.8-2.9h-23.9c-6.9,0.9-13.8,1-20.6,2.6c-29.7,6.9-55.2,21-76.6,42.7c-19.5,19.8-32.6,43.2-39.7,70
		c-2.1,8.1-2.9,16.3-3.8,24.6v26.2c0.9,0.4,0.6,1.2,0.7,1.9c0.8,8.2,2.1,16.3,4.3,24.2c13.4,47.8,42.8,81.9,88.1,102.1
		c22.9,10.2,47.1,14,72.2,12c6.6-0.5,13.2-1.8,20.3-2.7c-5.1,9.3-10.1,18.1-14.8,26.9c-13.2,24.5,3.4,52.5,31.3,52.5
		c48.4,0.1,96.8,0,145.2,0c3.4,0,6.7-0.4,10-1.3C408.1,403.9,418.2,379.6,406.8,358.9z M196.2,312c-2.3,0.3-3.4-0.1-3.1-2.8
		c0.2-2.6,0.1-5.2,0-7.9c-0.2-6.3-5.2-11.1-11.3-11.1c-6.1,0.1-10.9,4.9-11.1,11.3c-0.1,2.5-0.2,5,0,7.5c0.3,2.8-0.8,3.2-3.3,3
		c-12-1.1-29.1-5.9-40.9-11.7c1.7-2.9,3.4-5.8,5-8.7c3.3-6,1.6-12.8-4-15.9c-5.5-3-11.9-1.1-15.4,4.6c-0.7,1.2-1.4,2.4-2.1,3.6
		c-3.1,5.3-3.1,5.3-7.9,1.7c-9.9-7.7-18.6-16.6-26-26.7c-1.3-1.8-1.2-2.6,0.7-3.5c2.4-1.2,4.8-2.6,7.1-4.1c5.4-3.5,7-10.1,3.9-15.3
		c-3.1-5.3-9.6-7-15.3-3.9c-2.5,1.3-5,2.8-7.4,4.3c-1.4,0.9-2,0.6-2.7-0.9c-5.6-12.7-9.2-26-10.8-39.8c-0.2-2.2,0.5-2.8,2.6-2.6
		c2.7,0.2,5.5,0.1,8.2,0c6.2-0.2,11.1-5.3,11-11.4c-0.1-6-4.9-10.7-11-11c-2.1-0.1-4.2,0-6.4,0c-4.7,0-4.7,0-4.1-4.5
		c1.7-12.8,5-25.1,10.1-36.9c1.1-2.6,2.1-2.7,4.1-1.2c2,1.4,4.2,2.6,6.5,3.8c5.7,3,12.2,1.3,15.3-4c3.1-5.3,1.4-11.9-4-15.3
		c-2.3-1.5-4.7-2.8-7.1-4.1c-1.6-0.8-2.2-1.4-0.8-3.2c8.2-11.1,17.9-20.8,29-29c1.9-1.4,2.6-0.8,3.5,0.9c1.2,2.3,2.5,4.6,3.9,6.8
		c3.4,5.5,9.9,7.2,15.2,4.2c5.4-3,7.2-9.5,4.3-15.2c-0.8-1.6-1.7-3-2.6-4.6c-2.9-4.9-2.9-5,2.2-7.1c11.6-4.8,23.6-7.8,36-9.4
		c2.6-0.3,3.5,0.4,3.2,3c-0.2,2.5-0.1,5,0,7.5c0.2,6.3,5.1,11.2,11.2,11.2c6.1,0,11-4.9,11.2-11.2c0.1-2.7,0.1-5.5,0-8.2
		c-0.1-1.9,0.4-2.6,2.5-2.3c14,1.5,27.3,5.1,40.2,10.8c1.4,0.6,1.6,1.2,0.8,2.5c-1.6,2.5-3.1,5.1-4.5,7.8c-3,5.7-1.2,12.2,4.2,15.2
		c5.3,3,11.8,1.3,15.3-4.2c1.5-2.4,3-4.9,4.3-7.4c0.8-1.5,1.4-1.6,2.8-0.6c11.3,8.3,21.2,18.2,29.5,29.5c1,1.3,0.9,2-0.6,2.8
		c-2.5,1.3-5,2.8-7.4,4.3c-5.4,3.4-7.2,9.9-4.1,15.3c3,5.2,9.3,7.1,14.9,4.3c2.7-1.3,5.2-2.9,7.8-4.4c1.1-0.7,1.9-1.2,2.8,0.7
		c5.7,12.8,9.3,26.2,10.8,40.2c0.2,2.1-0.5,2.5-2.4,2.4c-2.7-0.1-5.5-0.1-8.2,0c-6.3,0.2-11.1,5.2-11.1,11.3c0,6.1,4.9,11,11.2,11.1
		c2.9,0.1,5.7,0.1,8.6,0c1.7-0.1,2.1,0.6,1.9,2.2c-0.7,4.3-1.3,8.6-2,12.9c-0.2,1.4-0.5,2-2.4,1.8c-16.8-1.6-29.3,5.2-37.4,19.8
		c-13.1,23.7-26.1,47.5-39.1,71.3c-1.1,2-2.4,3.2-4.6,3.9C216.7,308.5,206.6,310.8,196.2,312z M375.3,389.1c-24.1,0-48.1,0-72.2,0
		c-23.9,0-47.9,0-71.8,0c-12,0-17.7-9.7-11.9-20.2c23.4-42.6,46.9-85.2,70.3-127.8c4.4-7.9,10.9-10.9,18.1-8.4
		c4.1,1.5,6.6,4.6,8.7,8.3c20.1,36.7,40.4,73.4,60.6,110.1c3.3,6.1,6.7,12.2,10,18.3C392.4,379.4,386.6,389.1,375.3,389.1z
		 M303,269.4c-6.2,0.1-11,5-11.1,11.6c-0.1,4.9,0,9.7,0,14.6c0,4.7,0,9.5,0,14.2c0.1,6.9,4.8,11.9,11.2,12c6.4,0,11.2-5,11.3-11.9
		c0.1-9.6,0.1-19.2,0-28.8C314.3,274.3,309.4,269.3,303,269.4z M303.3,344.2c-6.1-0.1-11.2,4.9-11.4,11c-0.1,6,4.8,11.3,10.9,11.5
		c6.2,0.2,11.5-5,11.6-11.1C314.4,349.4,309.3,344.3,303.3,344.2z"/>
	<path class="st0" d="M248.1,170.6c-10.5,0-21-0.1-31.4,0c-2.1,0-3.2-0.4-4.2-2.5c-3.4-7.9-9.1-13.6-17-17c-2-0.8-2.4-1.9-2.4-3.9
		c0.1-6.6,0-13.2,0-19.8c0-6.1,0-12.2,0-18.3c0-8.2-4.4-13.4-11.3-13.3c-6.9,0.1-11.1,5.2-11.1,13.5c0,12.5-0.1,25,0.1,37.4
		c0,2.4-0.6,3.5-2.9,4.7c-11.7,5.6-18.4,15.1-19.5,28c-1.3,16.3,9.5,31,25.4,35.1c15.6,4,31.9-3.8,38.7-18.7c1-2.2,2.1-2.8,4.4-2.8
		c10.5,0.1,20.9,0.1,31.4,0c7.2,0,12.3-4.7,12.2-11.3C260.4,175.2,255.3,170.6,248.1,170.6z M181.7,193.1c-6-0.1-11.1-5.2-11.1-11.3
		c0-6.1,5.1-11.1,11.2-11.2c6,0,11.2,5,11.3,11.1C193.2,187.9,187.9,193.1,181.7,193.1z"/>
	<path class="st0" d="M314.3,355.5c-0.1,6.2-5.4,11.4-11.6,11.1c-6.1-0.2-11-5.4-10.9-11.5c0.1-6,5.3-11,11.4-11
		S314.4,349.4,314.3,355.5z"/>
	<path class="st0" d="M291.9,295.6c0-4.9,0-9.7,0-14.6c0.1-6.6,4.8-11.6,11.1-11.6c6.4-0.1,11.3,4.9,11.3,11.8
		c0.1,9.6,0.1,19.2,0,28.8c0,6.9-4.9,11.9-11.3,11.9c-6.4,0-11.1-5.1-11.2-12C291.8,305.1,291.9,300.3,291.9,295.6z"/>
	<path class="st0" d="M248.1,170.6c-10.5,0-21-0.1-31.4,0c-2.1,0-3.2-0.4-4.2-2.5c-3.4-7.9-9.1-13.6-17-17c-2-0.8-2.4-1.9-2.4-3.9
		c0.1-6.6,0-13.2,0-19.8c0-6.1,0-12.2,0-18.3c0-8.2-4.4-13.4-11.3-13.3c-6.9,0.1-11.1,5.2-11.1,13.5c0,12.5-0.1,25,0.1,37.4
		c0,2.4-0.6,3.5-2.9,4.7c-11.7,5.6-18.4,15.1-19.5,28c-1.3,16.3,9.5,31,25.4,35.1c15.6,4,31.9-3.8,38.7-18.7c1-2.2,2.1-2.8,4.4-2.8
		c10.5,0.1,20.9,0.1,31.4,0c7.2,0,12.3-4.7,12.2-11.3C260.4,175.2,255.3,170.6,248.1,170.6z M181.7,193.1c-6-0.1-11.1-5.2-11.1-11.3
		c0-6.1,5.1-11.1,11.2-11.2c6,0,11.2,5,11.3,11.1C193.2,187.9,187.9,193.1,181.7,193.1z"/>
	<path class="st0" d="M314.3,309.9c0,6.9-4.9,11.9-11.3,11.9c-6.4,0-11.1-5.1-11.2-12c0-4.7,0-9.5,0-14.2c0-4.9,0-9.7,0-14.6
		c0.1-6.6,4.8-11.6,11.1-11.6c6.4-0.1,11.3,4.9,11.3,11.8C314.4,290.7,314.4,300.3,314.3,309.9z"/>
	<path class="st0" d="M314.3,355.5c-0.1,6.2-5.4,11.4-11.6,11.1c-6.1-0.2-11-5.4-10.9-11.5c0.1-6,5.3-11,11.4-11
		S314.4,349.4,314.3,355.5z"/>
</g>
</svg>
