<?xml version="1.0" encoding="utf-8"?>
<!-- Generator: Adobe Illustrator 26.0.1, SVG Export Plug-In . SVG Version: 6.00 Build 0)  -->
<svg version="1.1" id="Layer_1" xmlns="http://www.w3.org/2000/svg" xmlns:xlink="http://www.w3.org/1999/xlink" x="0px" y="0px"
	 viewBox="0 0 70 70" style="enable-background:new 0 0 70 70;" xml:space="preserve">
<style type="text/css">
	.st0{fill:#2485B1;}
</style>
<g>
	<path class="st0" d="M7.1,69.5c-0.1,0-0.1-0.1-0.2-0.1c-1.8-0.6-2.8-1.9-2.8-3.8c0-6.1,0-12.1,0-18.2c0-2.4,0-4.8,0-7.1
		c0-0.9,0.4-1.3,1-1.3c0.6,0,1,0.5,1,1.3c0,6,0,12.1,0,18.1c0,0.3,0,0.5,0,0.8c7.5,0,15,0,22.5,0c0-0.3,0-0.6,0-0.8
		c0-3.8,0-7.6,0-11.4c0-1.8,0.8-2.7,2.7-2.7c3.7,0,7.4,0,11.1,0c0.3,0,0.5,0,0.8,0c0-11.2,0-22.3,0-33.5c-12.3,0-24.6,0-37,0
		c0,0.3,0,0.5,0,0.8c0,7.6,0,15.2,0,22.8c0,0.2,0,0.4,0,0.5c0,0.8-0.4,1.3-1,1.3c-0.6,0-1-0.4-1-1.3c0-5.9,0-11.7,0-17.6
		c0-4.3,0-8.5,0-12.8c0-2.6,1.5-4.1,4.1-4.1c11,0,21.9,0,32.9,0c2.6,0,4.1,1.5,4.1,4.2c0,12.9,0,25.8,0,38.7c0,0.3,0,0.6,0,0.9
		c0.3,0,0.6,0,0.9,0c5.7,0,11.4,0,17,0c1.9,0,2.8,0.8,2.8,2.7c0,4.2,0,8.4,0,12.6c0,0.2,0.1,0.5,0,0.7c-0.2,0.3-0.5,0.7-0.9,0.8
		c-0.3,0-0.7-0.3-1-0.6c-0.2-0.2-0.1-0.6-0.1-0.8c0-4.2,0-8.4,0-12.5c0-0.6-0.2-0.8-0.8-0.8c-10.6,0-21.1,0-31.7,0
		c-0.6,0-0.8,0.2-0.8,0.8c0,6.5,0,13,0,19.5c0,0.6,0.1,0.8,0.8,0.8c10.6,0,21.1,0,31.7,0c0.6,0,0.8-0.2,0.8-0.8
		c-0.1-0.6,0-1.2,0-1.8c0-0.7,0.4-1.1,1-1.1c0.6,0,1,0.4,1,1.1c0,0.5,0,1,0,1.5c0.1,1.4-0.4,2.4-1.6,3C45.2,69.5,26.1,69.5,7.1,69.5
		z M6.1,8.7c12.4,0,24.7,0,37,0c0-1.4,0-2.7,0-4c0-1.6-0.6-2.2-2.2-2.2c-10.9,0-21.8,0-32.7,0c-0.2,0-0.5,0-0.7,0
		C6.8,2.6,6.2,3.2,6.1,4C6.1,5.5,6.1,7.1,6.1,8.7z M6.1,61.3c0,1.4,0,2.7,0,4.1c0,1.5,0.6,2.1,2.1,2.1c6.5,0,13.1,0,19.6,0
		c0.2,0,0.5,0,0.7,0c0-2.1,0-4.1,0-6.2C21.1,61.3,13.7,61.3,6.1,61.3z"/>
	<path class="st0" d="M14.5,28.4c0.6-0.4,1.2-0.7,1.8-1c0.6-0.4,1.2-0.2,1.5,0.3c0.3,0.5,0.1,1.1-0.5,1.4c-1.1,0.7-2.2,1.3-3.4,1.9
		c-0.6,0.4-1.1,0.3-1.5-0.3c-0.8-1-1.7-2-2.5-2.9c-0.5-0.6-0.4-1.2,0-1.5c0.5-0.4,1.1-0.3,1.5,0.3c0.3,0.4,0.6,0.7,1,1.2
		c0.1-0.5,0.3-0.9,0.4-1.2c1.7-5.5,7.1-9.1,12.7-8.6c5.9,0.5,10.5,4.9,11.4,10.6c0.8,5.3-2,10.5-6.8,12.8
		c-4.7,2.3-10.5,1.4-14.2-2.4c-0.2-0.2-0.3-0.3-0.4-0.5c-0.3-0.4-0.2-0.9,0.1-1.2c0.4-0.4,0.8-0.4,1.2-0.1c0.2,0.1,0.4,0.3,0.5,0.5
		c3.2,3.2,8.1,3.9,12.1,1.9c4.1-2.1,6.2-6.5,5.4-11.1c-0.7-4.3-4.4-7.8-8.8-8.4c-5.2-0.7-10.2,2.6-11.4,7.8
		C14.5,28,14.5,28.1,14.5,28.4z"/>
	<path class="st0" d="M28,27c0,0.9-0.8,1.3-1.6,0.9c-0.6-0.3-1.2-0.5-1.9-0.6c-0.2,0-0.5,0.1-0.7,0.2c-0.4,0.3-0.3,0.8,0.2,1.1
		c0.8,0.3,1.5,0.6,2.3,0.9c1.2,0.5,2,1.3,2,2.7c0,1.3-0.8,2.4-2.1,2.8c-0.4,0.1-0.5,0.3-0.5,0.7c0,0.7-0.4,1-1,1c-0.6,0-1-0.4-1-1.1
		c0-0.4-0.2-0.6-0.5-0.7c-0.6-0.3-1.2-0.6-1.7-1.1c-0.6-0.5-0.6-1.1-0.1-1.5c0.4-0.4,1-0.4,1.5,0.1c0.7,0.6,1.4,0.9,2.3,0.8
		c0.5-0.1,1-0.3,1.1-0.9c0.1-0.6-0.4-0.8-0.8-1c-0.8-0.3-1.5-0.6-2.3-0.9c-1-0.4-1.6-1.1-1.7-2.2c-0.1-1.2,0.5-2,1.5-2.6
		c0.4-0.2,0.7-0.4,0.7-1c0-0.5,0.3-0.9,0.9-0.9c0.6,0,1,0.3,1,0.8c0,0.7,0.4,0.8,0.9,1c0.5,0.3,1,0.7,1.4,1C28,26.8,28,26.9,28,27z"
		/>
	<path class="st0" d="M37.1,56.6c-0.8,0-1.6,0-2.4,0c-1.1,0-1.8-0.7-1.8-1.8c0-1.4,0-2.8,0-4.2c0-1.1,0.7-1.8,1.8-1.8
		c1.6,0,3.2,0,4.8,0c1.1,0,1.8,0.7,1.8,1.8c0,1.4,0,2.8,0,4.2c0,1.1-0.7,1.8-1.8,1.8C38.8,56.6,37.9,56.6,37.1,56.6z M35,50.8
		c0,1.3,0,2.5,0,3.7c1.4,0,2.8,0,4.2,0c0-1.2,0-2.4,0-3.7C37.9,50.8,36.5,50.8,35,50.8z"/>
	<path class="st0" d="M56.7,57.5c-0.6-0.3-1.1-0.5-1.5-0.8c-0.8-0.7-1.6-1.5-2.3-2.3c-0.9-0.9-0.9-2.1,0-3.1
		c0.8-0.8,1.5-1.5,2.3-2.3c1-0.9,2.1-0.9,3.1,0c0.8,0.7,1.5,1.5,2.2,2.2c1,1,1,2.1,0,3.1c-0.7,0.8-1.5,1.5-2.2,2.2
		C57.9,57,57.3,57.2,56.7,57.5z M56.7,55.2c0.8-0.8,1.6-1.6,2.3-2.3c-0.7-0.7-1.6-1.6-2.3-2.3c-0.8,0.8-1.6,1.6-2.3,2.3
		C55.2,53.6,56,54.5,56.7,55.2z"/>
	<path class="st0" d="M37,61.3c0.6,0,1.1,0,1.7,0c0.6,0,1,0.4,1.1,1c0,0.6-0.4,1-1,1c-1.1,0-2.3,0-3.4,0c-0.7,0-1.1-0.5-1.1-1.1
		c0-0.6,0.5-0.9,1.1-0.9C35.8,61.3,36.4,61.3,37,61.3z"/>
	<path class="st0" d="M44.7,61.3c0.6,0,1.2,0,1.8,0c0.6,0,1,0.4,1,1c0,0.5-0.4,1-0.9,1c-1.2,0-2.4,0-3.6,0c-0.6,0-1-0.5-0.9-1
		c0-0.5,0.4-0.9,1-1c0,0,0.1,0,0.1,0C43.7,61.3,44.2,61.3,44.7,61.3C44.7,61.3,44.7,61.3,44.7,61.3z"/>
	<path class="st0" d="M52.5,61.3c0.6,0,1.2,0,1.7,0c0.6,0,1,0.4,1,0.9c0,0.5-0.4,1-0.9,1c-1.2,0-2.5,0-3.7,0c-0.6,0-0.9-0.5-0.9-1.1
		c0.1-0.6,0.4-0.9,1-0.9c0,0,0.1,0,0.1,0C51.5,61.3,52,61.3,52.5,61.3C52.5,61.3,52.5,61.3,52.5,61.3z"/>
	<path class="st0" d="M24.7,4.6c1,0,1.6,0.6,1.2,1.4c-0.3,0.6-0.9,0.6-1.4,0.6c-0.5,0-1-0.2-1.1-0.8C23.1,5.1,23.7,4.6,24.7,4.6z"/>
	<path class="st0" d="M24.7,63.4c0.4,0,0.9,0,1.3,0c0.7,0,1,0.4,1,1c0,0.6-0.4,1-0.9,1c-1,0-2,0-2.9,0c-0.6,0-1-0.5-1-1
		c0-0.5,0.4-0.9,1-1C23.7,63.4,24.2,63.4,24.7,63.4C24.7,63.4,24.7,63.4,24.7,63.4z"/>
</g>
</svg>
