<?xml version="1.0" encoding="utf-8"?>
<!-- Generator: Adobe Illustrator 26.0.1, SVG Export Plug-In . SVG Version: 6.00 Build 0)  -->
<svg version="1.1" id="Layer_1" xmlns="http://www.w3.org/2000/svg" xmlns:xlink="http://www.w3.org/1999/xlink" x="0px" y="0px"
	 viewBox="0 0 70 70" style="enable-background:new 0 0 70 70;" xml:space="preserve">
<style type="text/css">
	.st0{fill:#2485B1;}
</style>
<g>
	<g>
		<path class="st0" d="M41.9,69.5c0-7.7,0-15.3,0-23c0-1.1,0-2.2,0-3.4c0.8,0,1.5,0,2.3,0c0,0.7,0,1.4,0,2.2c0.8,0,1.5,0,2.3,0
			c0-0.2,0-0.4,0-0.5c0-5.5,0-11,0-16.6c0-4-2.4-7.2-6.3-7.9c-3.4-0.6-7-0.6-10.4,0C26,21,23.6,24.2,23.5,28c-0.1,5.7,0,11.3,0,17
			c0,0.1,0,0.2,0,0.3c0.7,0,1.4,0,2.2,0c0-0.7,0-1.4,0-2.2c0.8,0,1.5,0,2.3,0c0,8.8,0,17.6,0,26.4c-0.8,0-1.5,0-2.3,0
			c0-1.1,0-2.2,0-3.3c0-5.9,0-11.8,0-17.7c0-0.3,0-0.5,0-0.9c-1.5,0-3,0-4.5,0c0-0.2-0.1-0.3-0.1-0.4c0-6.5-0.1-13.1,0-19.6
			c0.1-5.2,4.2-9.5,9.4-9.8c3.1-0.2,6.2-0.2,9.3,0.1c4.7,0.4,8.7,4.8,8.8,9.5c0.1,6.6,0,13.2,0.1,19.7c0,0.1,0,0.3,0,0.4
			c-1.5,0-3,0-4.6,0c0,0.3,0,0.6,0,0.8c0,6.7,0,13.5,0,20.2c0,0.3,0,0.5,0,0.8C43.4,69.5,42.6,69.5,41.9,69.5z"/>
		<path class="st0" d="M62.6,69.5c0-7.2,0-14.4,0-21.6c0-0.1,0-0.1,0-0.2c0.7,0,1.4,0,2.2,0c0,0.7,0,1.4,0,2.2c0.8,0,1.5,0,2.3,0
			c0-0.2,0-0.4,0-0.6c0-4.7,0-9.3,0-14c0-2.5-1-4.4-3.3-5.5C63,29.5,62,29.3,61,29.3c-3-0.1-6.1,0-9.1,0c-0.2,0-0.5,0-0.8,0
			c0-0.8,0-1.5,0-2.2c0.1,0,0.1-0.1,0.1-0.1c3.7,0,7.5-0.1,11.2,0.1c3.8,0.2,7,3.6,7,7.4c0.1,5.9,0,11.8,0,17.8c-1.5,0-3,0-4.6,0
			c0,5.8,0,11.5,0,17.3C64.2,69.5,63.4,69.5,62.6,69.5z"/>
		<path class="st0" d="M0.5,34.1c0.5-1.2,0.7-2.5,1.4-3.5c1.4-2.2,3.5-3.4,6-3.5c3.6-0.1,7.2,0,10.9,0c0,0.7,0,1.4,0,2.3
			c-0.2,0-0.5,0-0.7,0c-3,0-6,0-9,0c-2.1,0-3.8,0.6-5.1,2.3c-0.8,1-1.2,2.2-1.2,3.4c0,4.9,0,9.8,0,14.7c0,0.1,0,0.1,0,0.2
			c0.7,0,1.4,0,2.2,0c0-0.7,0-1.4,0-2.2c0.8,0,1.5,0,2.3,0c0,0.1,0,0.2,0,0.2c0,7.2,0,14.4,0,21.5c-0.8,0-1.5,0-2.3,0
			c0-5.7,0-11.5,0-17.3c-1.6,0-3.1,0-4.6,0C0.5,46.2,0.5,40.1,0.5,34.1z"/>
		<path class="st0" d="M16.5,69.5c0-0.3,0.1-0.6,0.1-0.9c0-6.7,0-13.4,0-20.1c0-0.3,0-0.5,0-0.8c0.8,0,1.5,0,2.3,0
			c0,0.7,0,1.4,0,2.2c1.6,0,3,0,4.6,0c0,0.8,0,1.5,0,2.3c-1.5,0-3,0-4.5,0c0,0.2-0.1,0.4-0.1,0.6c0,5.4,0,10.8,0,16.2
			c0,0.2,0,0.4,0.1,0.5C18.1,69.5,17.3,69.5,16.5,69.5z"/>
		<path class="st0" d="M51,69.5c0-0.2,0.1-0.4,0.1-0.5c0-5.4,0-10.7,0-16.1c0-0.2,0-0.4,0-0.6c-1.5,0-3,0-4.5,0c0-0.8,0-1.5,0-2.3
			c1.5,0,3,0,4.6,0c0-0.8,0-1.5,0-2.3c0.8,0,1.5,0,2.3,0c0,0.3,0,0.6,0,0.9c0,6.7,0,13.4,0,20.1c0,0.3,0,0.6,0.1,0.9
			C52.7,69.5,51.8,69.5,51,69.5z"/>
		<path class="st0" d="M33.8,69.5c0-0.3,0.1-0.6,0.1-0.9c0-6.7,0-13.4,0-20.1c0-0.3,0-0.6,0-0.9c0.8,0,1.5,0,2.3,0
			c0,0.3,0,0.6,0,0.9c0,6.7,0,13.4,0,20.1c0,0.3,0,0.6,0.1,0.9C35.4,69.5,34.6,69.5,33.8,69.5z"/>
		<path class="st0" d="M10.9,69.5c0-5.7,0-11.4,0-17.2c0.7,0,1.5,0,2.3,0c0,5.7,0,11.5,0,17.2C12.4,69.5,11.6,69.5,10.9,69.5z"/>
		<path class="st0" d="M56.8,69.5c0-5.7,0-11.4,0-17.2c0.8,0,1.5,0,2.3,0c0,5.7,0,11.5,0,17.2C58.4,69.5,57.6,69.5,56.8,69.5z"/>
		<path class="st0" d="M35,16.6c-4.4,0-8.1-3.6-8-8.1c0-4.4,3.7-8,8.1-8c4.4,0,8,3.6,8,8C43.1,13,39.4,16.6,35,16.6z M35,14.3
			c3.1,0,5.7-2.5,5.8-5.7c0.1-3.1-2.6-5.7-5.7-5.8c-3.1,0-5.7,2.5-5.8,5.7C29.2,11.6,31.8,14.2,35,14.3z"/>
		<path class="st0" d="M51.1,18.9c0-3.8,3.2-6.9,6.9-6.9c3.8,0,6.9,3.2,6.9,6.9c0,3.8-3.2,6.9-6.9,6.9
			C54.2,25.8,51.1,22.7,51.1,18.9z M53.4,18.9c0,2.5,2.1,4.6,4.6,4.6c2.5,0,4.6-2.1,4.6-4.6c0-2.5-2.1-4.6-4.6-4.6
			C55.4,14.3,53.4,16.4,53.4,18.9z"/>
		<path class="st0" d="M18.9,18.9c0,3.8-3.1,6.9-6.9,6.9c-3.7,0-6.9-3.2-6.9-6.9c0-3.8,3.2-6.9,6.9-6.9C15.8,12,18.9,15.1,18.9,18.9
			z M16.6,18.9c0-2.5-2-4.6-4.5-4.6c-2.5,0-4.7,2.1-4.6,4.6c0,2.5,2.1,4.6,4.6,4.6C14.5,23.5,16.6,21.4,16.6,18.9z"/>
	</g>
</g>
</svg>
